<svg width="64" height="64" viewBox="0 0 64 64" fill="none" xmlns="http://www.w3.org/2000/svg">
<g clip-path="url(#clip0_2929_2956)">
<rect width="64" height="64" fill="black"/>
<path d="M46.9609 41.2972V47.23C46.9609 50.5819 44.9792 53.4393 41.4924 55.0231L41.4087 55.065C41.5091 54.6209 41.6011 54.1684 41.6847 53.7243C41.7683 53.2801 41.8603 52.836 41.9272 52.3835L42.0192 52.3165C42.8764 51.771 43.585 51.0206 44.0812 50.1328C44.5775 49.245 44.8458 48.2475 44.8621 47.23V41.2972C44.8666 40.0045 44.4572 38.7445 43.6941 37.7022C42.9311 36.66 41.8546 35.8905 40.6228 35.5068L40.2381 35.3811L30.2625 32.2136L25.1117 30.5377C23.2695 29.9652 21.6595 28.8151 20.5184 27.2568C19.3774 25.6985 18.7658 23.8143 18.7735 21.8815V17.4821C18.7761 17.0665 18.8125 16.6517 18.8822 16.2419C18.8822 16.2 18.8822 16.1749 18.8822 16.133C19.1398 15.0306 19.6218 13.9933 20.298 13.0863C20.9743 12.1793 21.8303 11.4221 22.8122 10.8621C25.0466 9.49869 27.6131 8.77959 30.2291 8.784H35.0705C40.4722 8.784 46.3087 12.2113 46.3087 17.767V21.2446C46.3087 21.4824 46.2145 21.7104 46.0467 21.8786C45.8789 22.0467 45.6513 22.1412 45.414 22.1412H45.0879C44.8506 22.1412 44.623 22.0467 44.4553 21.8786C44.2875 21.7104 44.1932 21.4824 44.1932 21.2446V17.767C44.1932 13.6526 39.4772 10.8873 35.0705 10.8873H30.2291C27.9305 10.879 25.6781 11.5335 23.7404 12.7727C22.9035 13.2516 22.2005 13.9341 21.6963 14.7572C21.1921 15.5803 20.9029 16.5175 20.8556 17.4821V21.8815C20.8522 23.3657 21.3226 24.8122 22.1983 26.0093C23.0739 27.2064 24.3087 28.0914 25.7221 28.5349L27.8376 29.2053L38.8668 32.6996L41.2415 33.4538C42.9076 33.9745 44.3627 35.0178 45.3924 36.4299C46.4221 37.842 46.972 39.5482 46.9609 41.2972Z" fill="white"/>
<path d="M36.5451 54.1098C36.5451 54.8053 36.4615 55.5008 36.3863 56.188H29.053C23.8269 56.188 18.4336 52.8361 18.4336 47.2552V43.6436C18.4336 43.4064 18.5264 43.1787 18.6921 43.0095C18.8579 42.8402 19.0833 42.743 19.3199 42.7386H19.646C19.8841 42.7408 20.1117 42.8371 20.2792 43.0066C20.4468 43.1761 20.5408 43.405 20.5407 43.6436V47.2552C20.5407 51.5289 24.8638 54.0763 29.053 54.0763H36.5786V54.1266L36.5451 54.1098Z" fill="white"/>
<path d="M22.8659 10.8958C21.8839 11.4557 21.028 12.213 20.3517 13.1199C19.6754 14.0269 19.1934 15.0642 18.9359 16.1666C18.9359 16.2085 18.9359 16.2336 18.9359 16.2755L18.8773 16.1582C16.6113 10.2924 16.0343 3.40433 19.1951 -3.23238C24.6218 -14.6288 38.9121 -25.3464 39.8068 -26C38.9706 -25.271 25.9848 -14.2684 21.829 -2.95586C20.0981 1.74514 20.834 6.34558 22.8157 10.7533V10.8287L22.8659 10.8958Z" fill="url(#paint0_linear_2929_2956)"/>
<path d="M38.8706 32.6411L38.9208 32.7332L27.8917 29.2389L27.8081 29.1384C27.3064 28.5769 26.7963 28.0239 26.2361 27.4624C24.1954 25.4236 22.435 23.1213 21.0016 20.6162L20.918 20.4486V17.5157C20.9653 16.5511 21.2545 15.614 21.7587 14.7909C22.2629 13.9678 22.9659 13.2853 23.8028 12.8064L23.8446 12.8818C27.0053 18.6805 32.0726 24.1273 36.2283 28.9708C37.2074 30.0963 38.0833 31.3079 38.8456 32.5908L38.8706 32.6411Z" fill="url(#paint1_linear_2929_2956)"/>
<path d="M41.9839 52.216C41.9839 52.216 41.9839 52.2579 41.9839 52.2747V52.3836C41.917 52.8361 41.8334 53.2802 41.7414 53.7244C41.6494 54.1685 41.5658 54.621 41.4655 55.0651C41.4655 55.0651 41.4655 55.107 41.4655 55.1321C40.8931 57.5824 40.1612 59.9925 39.2747 62.347C35.5035 72.4027 28.9981 81.3689 22.4258 90C25.5865 85.6761 34.8848 71.7407 36.415 56.3891V56.2634C36.415 56.2634 36.415 56.2131 36.415 56.188C36.4902 55.5008 36.5404 54.8053 36.5738 54.1098V54.0595C36.5775 54.0345 36.5775 54.0091 36.5738 53.9841C37.0664 46.2825 34.8992 38.6455 30.4363 32.3562L30.3444 32.2472L40.2697 35.3812L40.3199 35.4818L40.3701 35.5656C42.611 40.828 42.887 46.5513 41.9839 52.216Z" fill="url(#paint2_linear_2929_2956)"/>
</g>
<defs>
<linearGradient id="paint0_linear_2929_2956" x1="16.9876" y1="-4.86643" x2="39.79" y2="-4.86643" gradientUnits="userSpaceOnUse">
<stop stop-color="#F3CC71"/>
<stop offset="0.4" stop-color="#F3CC71"/>
<stop offset="1" stop-color="#B08039"/>
</linearGradient>
<linearGradient id="paint1_linear_2929_2956" x1="20.9096" y1="22.7698" x2="38.9208" y2="22.7698" gradientUnits="userSpaceOnUse">
<stop stop-color="#F3CC71"/>
<stop offset="0.4" stop-color="#F3CC71"/>
<stop offset="1" stop-color="#B08039"/>
</linearGradient>
<linearGradient id="paint2_linear_2929_2956" x1="22.384" y1="61.1068" x2="42.4689" y2="61.1068" gradientUnits="userSpaceOnUse">
<stop stop-color="#F3CC71"/>
<stop offset="0.4" stop-color="#F3CC71"/>
<stop offset="1" stop-color="#B08039"/>
</linearGradient>
<clipPath id="clip0_2929_2956">
<rect width="64" height="64" fill="white"/>
</clipPath>
</defs>
</svg>
