<svg width="60" height="60" viewBox="0 0 60 60" fill="none" xmlns="http://www.w3.org/2000/svg">
<path d="M36.199 33.8472V36.3021C36.199 37.6891 35.3789 38.8715 33.9361 39.5269L33.9015 39.5442C33.943 39.3604 33.9811 39.1732 34.0157 38.9894C34.0503 38.8056 34.0883 38.6219 34.116 38.4346L34.1541 38.4069C34.5088 38.1812 34.802 37.8707 35.0073 37.5033C35.2127 37.1359 35.3237 36.7232 35.3305 36.3021V33.8472C35.3323 33.3123 35.1629 32.7909 34.8472 32.3596C34.5314 31.9283 34.086 31.6099 33.5763 31.4512L33.4171 31.3991L29.2893 30.0884L27.1579 29.395C26.3956 29.1581 25.7294 28.6822 25.2572 28.0374C24.7851 27.3926 24.532 26.6129 24.5352 25.8131V23.9927C24.5363 23.8207 24.5513 23.649 24.5802 23.4795C24.5802 23.4621 24.5802 23.4517 24.5802 23.4344C24.6867 22.9782 24.8862 22.549 25.166 22.1737C25.4459 21.7984 25.8 21.4851 26.2064 21.2534C27.1309 20.6892 28.1929 20.3916 29.2754 20.3934H31.2788C33.514 20.3934 35.9291 21.8116 35.9291 24.1106V25.5495C35.9291 25.6479 35.8901 25.7423 35.8206 25.8119C35.7512 25.8815 35.657 25.9206 35.5588 25.9206H35.4239C35.3257 25.9206 35.2315 25.8815 35.1621 25.8119C35.0927 25.7423 35.0537 25.6479 35.0537 25.5495V24.1106C35.0537 22.408 33.1022 21.2638 31.2788 21.2638H29.2754C28.3243 21.2604 27.3922 21.5312 26.5904 22.0439C26.2441 22.2421 25.9532 22.5245 25.7446 22.8651C25.536 23.2057 25.4163 23.5935 25.3967 23.9927V25.8131C25.3953 26.4273 25.59 27.0258 25.9523 27.5211C26.3146 28.0165 26.8256 28.3827 27.4105 28.5662L28.2859 28.8436L32.8496 30.2896L33.8323 30.6016C34.5217 30.8171 35.1238 31.2488 35.5499 31.8331C35.976 32.4174 36.2035 33.1235 36.199 33.8472Z" fill="white"/>
<path d="M31.889 39.1488C31.889 39.4366 31.8544 39.7244 31.8232 40.0087H28.7888C26.6262 40.0087 24.3945 38.6218 24.3945 36.3124V34.818C24.3945 34.7198 24.4329 34.6256 24.5015 34.5556C24.5701 34.4856 24.6634 34.4453 24.7613 34.4435H24.8962C24.9947 34.4444 25.0889 34.4843 25.1582 34.5544C25.2276 34.6245 25.2665 34.7192 25.2665 34.818V36.3124C25.2665 38.0808 27.0553 39.135 28.7888 39.135H31.9028V39.1558L31.889 39.1488Z" fill="white"/>
<path d="M26.228 21.2672C25.8217 21.4989 25.4675 21.8123 25.1877 22.1876C24.9079 22.5629 24.7084 22.9921 24.6018 23.4482C24.6018 23.4656 24.6018 23.476 24.6018 23.4933L24.5776 23.4448C23.6399 21.0176 23.4012 18.1673 24.7091 15.4211C26.9546 10.7053 32.8678 6.27046 33.2381 6C32.8921 6.30167 27.5186 10.8544 25.799 15.5355C25.0828 17.4807 25.3872 19.3844 26.2073 21.2083V21.2395L26.228 21.2672Z" fill="url(#paint0_linear_2911_11988)"/>
<path d="M32.8506 30.2652L32.8713 30.3034L28.3076 28.8574L28.2729 28.8158C28.0653 28.5835 27.8543 28.3546 27.6225 28.1223C26.778 27.2787 26.0496 26.326 25.4565 25.2894L25.4219 25.2201V24.0064C25.4415 23.6073 25.5611 23.2195 25.7698 22.8789C25.9784 22.5383 26.2693 22.2559 26.6156 22.0577L26.6329 22.0889C27.9408 24.4884 30.0376 26.7423 31.7572 28.7465C32.1623 29.2122 32.5248 29.7135 32.8402 30.2444L32.8506 30.2652Z" fill="url(#paint1_linear_2911_11988)"/>
<path d="M34.1399 38.3652C34.1399 38.3652 34.1399 38.3826 34.1399 38.3895V38.4346C34.1122 38.6218 34.0776 38.8056 34.0396 38.9894C34.0015 39.1732 33.9669 39.3604 33.9254 39.5442C33.9254 39.5442 33.9254 39.5615 33.9254 39.5719C33.6885 40.5858 33.3857 41.5831 33.0188 42.5574C31.4584 46.7183 28.7665 50.4285 26.0469 54C27.3548 52.2108 31.2023 46.4444 31.8355 40.092V40.04C31.8355 40.04 31.8355 40.0192 31.8355 40.0088C31.8667 39.7245 31.8874 39.4367 31.9012 39.1489V39.1281C31.9028 39.1177 31.9028 39.1072 31.9012 39.0969C32.1051 35.91 31.2083 32.7499 29.3616 30.1474L29.3235 30.1023L33.4306 31.3991L33.4513 31.4407L33.4721 31.4754C34.3994 33.653 34.5136 36.0212 34.1399 38.3652Z" fill="url(#paint2_linear_2911_11988)"/>
<defs>
<linearGradient id="paint0_linear_2911_11988" x1="23.7956" y1="14.7449" x2="33.2311" y2="14.7449" gradientUnits="userSpaceOnUse">
<stop stop-color="#F3CC71"/>
<stop offset="0.4" stop-color="#F3CC71"/>
<stop offset="1" stop-color="#B08039"/>
</linearGradient>
<linearGradient id="paint1_linear_2911_11988" x1="25.4184" y1="26.1805" x2="32.8713" y2="26.1805" gradientUnits="userSpaceOnUse">
<stop stop-color="#F3CC71"/>
<stop offset="0.4" stop-color="#F3CC71"/>
<stop offset="1" stop-color="#B08039"/>
</linearGradient>
<linearGradient id="paint2_linear_2911_11988" x1="26.0296" y1="42.0442" x2="34.3406" y2="42.0442" gradientUnits="userSpaceOnUse">
<stop stop-color="#F3CC71"/>
<stop offset="0.4" stop-color="#F3CC71"/>
<stop offset="1" stop-color="#B08039"/>
</linearGradient>
</defs>
</svg>
