<svg width="48" height="48" viewBox="0 0 48 48" fill="none" xmlns="http://www.w3.org/2000/svg">
<path d="M28.6541 26.8852V28.7264C28.6541 29.7667 28.0391 30.6535 26.957 31.145L26.931 31.158C26.9621 31.0202 26.9907 30.8797 27.0166 30.7419C27.0426 30.6041 27.0711 30.4662 27.0919 30.3258L27.1204 30.305C27.3865 30.1357 27.6064 29.9028 27.7604 29.6273C27.9144 29.3518 27.9977 29.0422 28.0027 28.7264V26.8852C28.0041 26.484 27.8771 26.093 27.6403 25.7696C27.4034 25.4461 27.0694 25.2073 26.6871 25.0882L26.5677 25.0492L23.4718 24.0662L21.8733 23.5461C21.3016 23.3684 20.8019 23.0115 20.4478 22.5279C20.0937 22.0443 19.9039 21.4595 19.9063 20.8597V19.4943C19.9071 19.3653 19.9184 19.2366 19.94 19.1095C19.94 19.0965 19.94 19.0886 19.94 19.0756C20.0199 18.7335 20.1695 18.4116 20.3794 18.1301C20.5893 17.8487 20.8549 17.6137 21.1597 17.4399C21.8531 17.0167 22.6496 16.7936 23.4615 16.7949H24.964C26.6404 16.7949 28.4517 17.8586 28.4517 19.5828V20.662C28.4517 20.7358 28.4224 20.8066 28.3704 20.8588C28.3183 20.911 28.2477 20.9403 28.174 20.9403H28.0728C27.9992 20.9403 27.9285 20.911 27.8765 20.8588C27.8244 20.8066 27.7951 20.7358 27.7951 20.662V19.5828C27.7951 18.3059 26.3316 17.4477 24.964 17.4477H23.4615C22.7481 17.4451 22.0491 17.6482 21.4477 18.0328C21.188 18.1814 20.9698 18.3932 20.8133 18.6487C20.6569 18.9041 20.5671 19.195 20.5524 19.4943V20.8597C20.5514 21.3203 20.6974 21.7692 20.9691 22.1407C21.2409 22.5122 21.6241 22.7869 22.0627 22.9245L22.7193 23.1326L26.1421 24.217L26.8791 24.4511C27.3962 24.6127 27.8478 24.9364 28.1673 25.3747C28.4869 25.8129 28.6575 26.3424 28.6541 26.8852Z" fill="white"/>
<path d="M25.4177 30.8618C25.4177 31.0776 25.3917 31.2935 25.3684 31.5067H23.0926C21.4707 31.5067 19.7969 30.4665 19.7969 28.7345V27.6136C19.7969 27.54 19.8257 27.4694 19.8771 27.4168C19.9286 27.3643 19.9985 27.3341 20.0719 27.3328H20.1731C20.247 27.3334 20.3177 27.3633 20.3697 27.4159C20.4217 27.4685 20.4508 27.5396 20.4508 27.6136V28.7345C20.4508 30.0608 21.7924 30.8514 23.0926 30.8514H25.4281V30.867L25.4177 30.8618Z" fill="white"/>
<path d="M21.172 17.4504C20.8673 17.6242 20.6016 17.8592 20.3917 18.1407C20.1819 18.4222 20.0323 18.7441 19.9523 19.0862C19.9523 19.0992 19.9523 19.107 19.9523 19.12L19.9342 19.0836C19.2309 17.2632 19.0519 15.1255 20.0328 13.0658C21.717 9.52901 26.1519 6.20285 26.4295 6C26.17 6.22625 22.14 9.64083 20.8502 13.1516C20.3131 14.6106 20.5414 16.0383 21.1564 17.4062V17.4296L21.172 17.4504Z" fill="url(#paint0_linear_3269_15442)"/>
<path d="M26.134 24.1991L26.1496 24.2277L22.7268 23.1432L22.7008 23.112C22.5451 22.9378 22.3868 22.7661 22.2129 22.5919C21.5796 21.9592 21.0333 21.2446 20.5885 20.4672L20.5625 20.4152V19.505C20.5772 19.2056 20.6669 18.9148 20.8234 18.6593C20.9799 18.4039 21.1981 18.1921 21.4578 18.0435L21.4708 18.0669C22.4517 19.8665 24.0243 21.5569 25.314 23.06C25.6178 23.4093 25.8897 23.7853 26.1262 24.1835L26.134 24.1991Z" fill="url(#paint1_linear_3269_15442)"/>
<path d="M27.101 30.2739C27.101 30.2739 27.101 30.2869 27.101 30.2921V30.3259C27.0802 30.4663 27.0543 30.6041 27.0258 30.742C26.9972 30.8798 26.9713 31.0202 26.9401 31.1581C26.9401 31.1581 26.9401 31.1711 26.9401 31.1789C26.7625 31.9393 26.5354 32.6873 26.2602 33.418C25.0899 36.5387 23.0709 39.3213 21.0312 41.9999C22.0122 40.658 24.8978 36.3333 25.3727 31.569V31.53C25.3727 31.53 25.3727 31.5143 25.3727 31.5065C25.3961 31.2933 25.4116 31.0775 25.422 30.8616V30.846C25.4232 30.8382 25.4232 30.8304 25.422 30.8226C25.5749 28.4324 24.9023 26.0623 23.5173 24.1105L23.4887 24.0767L26.569 25.0493L26.5846 25.0805L26.6002 25.1065C27.2956 26.7397 27.3813 28.5159 27.101 30.2739Z" fill="url(#paint2_linear_3269_15442)"/>
<defs>
<linearGradient id="paint0_linear_3269_15442" x1="19.3477" y1="12.5587" x2="26.4243" y2="12.5587" gradientUnits="userSpaceOnUse">
<stop stop-color="#F3CC71"/>
<stop offset="0.4" stop-color="#F3CC71"/>
<stop offset="1" stop-color="#B08039"/>
</linearGradient>
<linearGradient id="paint1_linear_3269_15442" x1="20.5599" y1="21.1356" x2="26.1496" y2="21.1356" gradientUnits="userSpaceOnUse">
<stop stop-color="#F3CC71"/>
<stop offset="0.4" stop-color="#F3CC71"/>
<stop offset="1" stop-color="#B08039"/>
</linearGradient>
<linearGradient id="paint2_linear_3269_15442" x1="21.0183" y1="33.0331" x2="27.2515" y2="33.0331" gradientUnits="userSpaceOnUse">
<stop stop-color="#F3CC71"/>
<stop offset="0.4" stop-color="#F3CC71"/>
<stop offset="1" stop-color="#B08039"/>
</linearGradient>
</defs>
</svg>
