<svg width="24" height="24" viewBox="0 0 24 24" fill="none" xmlns="http://www.w3.org/2000/svg">
<mask id="mask0_2488_5042" style="mask-type:alpha" maskUnits="userSpaceOnUse" x="0" y="0" width="24" height="24">
<rect width="24" height="24" fill="#D9D9D9"/>
</mask>
<g mask="url(#mask0_2488_5042)">
<path d="M7.30759 17.2728C5.84396 17.2728 4.60306 16.7603 3.58489 15.7353C2.56671 14.7103 2.05762 13.4664 2.05762 12.0036C2.05762 10.5408 2.57012 9.29688 3.59512 8.27188C4.6201 7.24688 5.864 6.73438 7.32682 6.73438H18.1345C19.1869 6.73438 20.0879 7.1091 20.8373 7.85855C21.5867 8.60798 21.9614 9.5089 21.9614 10.5613C21.9614 11.6137 21.5867 12.5146 20.8373 13.264C20.0879 14.0135 19.1869 14.3882 18.1345 14.3882H8.38452C7.71683 14.3882 7.15248 14.1577 6.69144 13.6966C6.23043 13.2355 5.99992 12.6711 5.99992 12.0033C5.99992 11.3356 6.23043 10.7712 6.69144 10.3103C7.15248 9.84944 7.71683 9.619 8.38452 9.619H18.1345V10.8113H8.38452C8.0467 10.8113 7.76353 10.9255 7.53499 11.1541C7.30646 11.3826 7.19219 11.6658 7.19219 12.0036C7.19219 12.3414 7.30646 12.6246 7.53499 12.8531C7.76353 13.0817 8.0467 13.1959 8.38452 13.1959H18.1345C18.8722 13.1959 19.4958 12.9412 20.0051 12.4316C20.5145 11.9221 20.7692 11.2984 20.7692 10.5605C20.7692 9.82256 20.5145 9.19911 20.0051 8.69012C19.4958 8.18116 18.8722 7.92667 18.1345 7.92667H7.32682C6.20118 7.92667 5.24029 8.32475 4.44414 9.1209C3.64798 9.91705 3.24989 10.8764 3.24989 11.9988C3.24989 13.1213 3.64637 14.0822 4.43932 14.8815C5.23227 15.6809 6.18836 16.0805 7.30759 16.0805H18.1345V17.2728H7.30759Z" fill="#4F4F5A"/>
</g>
</svg>
