<svg width="183" height="80" viewBox="0 0 183 80" fill="none" xmlns="http://www.w3.org/2000/svg">
<g clip-path="url(#clip0_2770_12680)">
<path d="M48.0904 56.6814H48.3215C48.4835 56.6799 48.6383 56.6148 48.7529 56.5003C48.8674 56.3857 48.9324 56.2308 48.9339 56.0688V24.671C48.9353 24.505 48.8781 24.3439 48.7724 24.216C48.6667 24.0881 48.5193 24.0016 48.3562 23.9717C48.1927 23.937 48.0222 23.9615 47.8751 24.0409C47.728 24.1203 47.6139 24.2494 47.5531 24.4051L37.2639 49.7927L37.2119 49.6713L26.9746 24.4051C26.9138 24.2494 26.7997 24.1203 26.6526 24.0409C26.5056 23.9615 26.335 23.937 26.1716 23.9717C26.0079 24.0005 25.8598 24.0868 25.754 24.2149C25.6481 24.3431 25.5913 24.5047 25.5938 24.671V56.0688C25.5953 56.2308 25.6603 56.3857 25.7748 56.5003C25.8894 56.6148 26.0443 56.6799 26.2062 56.6814H26.4373C26.5997 56.6814 26.7555 56.6168 26.8703 56.5019C26.9852 56.3871 27.0497 56.2312 27.0497 56.0688V28.4736L27.1537 28.7279L36.4782 51.7287C36.5394 51.8868 36.6474 52.0225 36.7878 52.1175C36.9282 52.2125 37.0943 52.2624 37.2639 52.2604C37.4334 52.2624 37.5995 52.2125 37.7399 52.1175C37.8803 52.0225 37.9884 51.8868 38.0496 51.7287L47.478 28.4736V56.0688C47.478 56.2312 47.5425 56.3871 47.6574 56.5019C47.7722 56.6168 47.928 56.6814 48.0904 56.6814Z" fill="black"/>
<path d="M59.6288 56.7045H67.7747C69.0552 56.7029 70.2828 56.1934 71.1882 55.2877C72.0936 54.382 72.603 53.154 72.6045 51.8732V29.0631C72.603 27.7117 72.0656 26.4161 71.1104 25.4605C70.1551 24.5049 68.8599 23.9674 67.509 23.9659H58.8951C57.7408 23.9674 56.6343 24.4272 55.8186 25.2442C55.003 26.0612 54.5448 27.1687 54.5448 28.3233V29.4503C54.5441 29.5312 54.5594 29.6115 54.5898 29.6865C54.6202 29.7615 54.6652 29.8297 54.7222 29.8872C54.7791 29.9447 54.8469 29.9903 54.9215 30.0214C54.9962 30.0526 55.0763 30.0686 55.1572 30.0686H55.3883C55.5513 30.0671 55.707 30.0013 55.8217 29.8855C55.9364 29.7697 56.0007 29.6133 56.0007 29.4503V28.3291C56.0007 27.5628 56.305 26.8278 56.8468 26.2859C57.3885 25.744 58.1232 25.4396 58.8893 25.4396H67.5032C68.468 25.4411 69.3929 25.8252 70.0751 26.5076C70.7574 27.1901 71.1413 28.1153 71.1429 29.0804V34.7439L71.0504 34.663C70.1705 33.8469 69.0151 33.3929 67.8152 33.3916H59.0511C57.8544 33.3916 56.7068 33.8671 55.8606 34.7136C55.0144 35.56 54.5391 36.708 54.5391 37.9051V51.6362C54.5452 52.9825 55.0841 54.2716 56.038 55.2214C56.9918 56.1713 58.2829 56.7045 59.6288 56.7045ZM56.0007 37.8877C56.0007 37.4863 56.0798 37.0887 56.2333 36.7178C56.3869 36.3469 56.612 36.0099 56.8958 35.726C57.1796 35.4421 57.5165 35.2169 57.8873 35.0633C58.2581 34.9097 58.6555 34.8306 59.0569 34.8306H67.8209C68.703 34.8321 69.5486 35.1833 70.1723 35.8073C70.796 36.4312 71.1471 37.277 71.1486 38.1594V51.8674C71.1471 52.762 70.7912 53.6196 70.1588 54.2522C69.5264 54.8848 68.6691 55.2408 67.7747 55.2424H59.6288C58.6666 55.2424 57.7438 54.86 57.0634 54.1794C56.383 53.4988 56.0007 52.5756 56.0007 51.6131V37.8877Z" fill="black"/>
<path d="M95.9788 55.722L89.826 42.7364H89.9011C91.3752 42.5444 92.7293 41.8231 93.7113 40.7068C94.6933 39.5905 95.2363 38.1553 95.2393 36.6684V30.2073C95.2378 28.5525 94.5799 26.9658 93.4101 25.7957C92.2403 24.6255 90.6542 23.9674 88.9999 23.9659H78.7626C78.5603 23.9659 78.3664 24.0463 78.2234 24.1893C78.0803 24.3324 78 24.5264 78 24.7287V56.0572C78.0015 56.2202 78.0673 56.376 78.1831 56.4907C78.2988 56.6055 78.4552 56.6698 78.6182 56.6698H78.8435C79.0059 56.6698 79.1617 56.6053 79.2765 56.4904C79.3913 56.3755 79.4559 56.2197 79.4559 56.0572V42.7653H88.2431V42.8L94.6558 56.3288C94.74 56.5024 94.8896 56.6354 95.0718 56.6987C95.1644 56.7361 95.264 56.753 95.3638 56.748C95.4636 56.743 95.5611 56.7163 95.6495 56.6698C95.8164 56.5853 95.944 56.4392 96.0055 56.2624C96.0669 56.0856 96.0573 55.8919 95.9788 55.722ZM79.4501 41.3263V25.4222H88.9941C90.2628 25.4222 91.4795 25.9264 92.3766 26.8238C93.2737 27.7211 93.7777 28.9382 93.7777 30.2073V36.6684C93.7761 37.9043 93.2842 39.089 92.4101 39.9624C91.5359 40.8357 90.3509 41.3263 89.1154 41.3263H79.4501Z" fill="black"/>
<path d="M106.242 56.6813H106.433C106.602 56.6813 106.763 56.6144 106.882 56.4952C107.002 56.3759 107.068 56.2143 107.068 56.0457V25.4165H115.266C115.35 25.4172 115.432 25.4015 115.509 25.3702C115.586 25.3388 115.656 25.2926 115.715 25.234C115.774 25.1754 115.821 25.1057 115.853 25.0289C115.885 24.9521 115.902 24.8697 115.902 24.7865V24.59C115.902 24.5068 115.885 24.4244 115.853 24.3476C115.821 24.2708 115.774 24.2011 115.715 24.1426C115.656 24.084 115.586 24.0377 115.509 24.0064C115.432 23.9751 115.35 23.9593 115.266 23.9601H97.4089C97.3258 23.9593 97.2432 23.9751 97.1662 24.0064C97.0891 24.0377 97.019 24.084 96.9599 24.1426C96.9008 24.2011 96.8539 24.2708 96.8219 24.3476C96.7899 24.4244 96.7734 24.5068 96.7734 24.59V24.7865C96.7734 24.8697 96.7899 24.9521 96.8219 25.0289C96.8539 25.1057 96.9008 25.1754 96.9599 25.234C97.019 25.2926 97.0891 25.3388 97.1662 25.3702C97.2432 25.4015 97.3258 25.4172 97.4089 25.4165H105.636V56.0457C105.634 56.2098 105.697 56.3681 105.81 56.4868C105.923 56.6055 106.078 56.6753 106.242 56.6813Z" fill="black"/>
<path d="M120.936 23.9717H120.566C120.422 23.9717 120.284 24.0289 120.183 24.1308C120.081 24.2327 120.023 24.3708 120.023 24.5149V55.9127C120.023 56.1141 120.103 56.3072 120.245 56.4501C120.387 56.593 120.579 56.6741 120.78 56.6756H136.13C136.272 56.6673 136.405 56.6074 136.505 56.5073C136.605 56.4072 136.665 56.2737 136.673 56.1323V55.7625C136.673 55.6184 136.616 55.4802 136.514 55.3784C136.413 55.2765 136.274 55.2192 136.13 55.2192H121.479V24.5149C121.479 24.3708 121.422 24.2327 121.32 24.1308C121.218 24.0289 121.08 23.9717 120.936 23.9717Z" fill="black"/>
<path d="M156.165 29.693C156.163 28.1765 155.561 26.7225 154.49 25.6491C153.419 24.5757 151.967 23.9705 150.451 23.9659H145.5C144.006 23.9674 142.573 24.5624 141.517 25.62C140.46 26.6776 139.867 28.1114 139.867 29.6063V51.0872C139.867 52.5836 140.461 54.0189 141.518 55.0776C142.576 56.1363 144.01 56.7318 145.506 56.7334H150.428C151.943 56.7303 153.396 56.1264 154.467 55.0539C155.538 53.9815 156.14 52.528 156.142 51.0121V48.0185C156.142 47.857 156.078 47.7021 155.964 47.5874C155.851 47.4727 155.696 47.4074 155.535 47.4059H155.321C155.159 47.4074 155.004 47.4724 154.89 47.587C154.775 47.7016 154.71 47.8565 154.709 48.0185V51.0063C154.707 52.1375 154.258 53.222 153.459 54.0224C152.66 54.8229 151.576 55.274 150.445 55.277H145.5C144.392 55.2755 143.329 54.834 142.546 54.0495C141.763 53.265 141.323 52.2017 141.323 51.093V43.2739H155.385C155.586 43.2739 155.778 43.1941 155.92 43.0521C156.062 42.9101 156.142 42.7176 156.142 42.5168L156.165 29.693ZM154.709 41.8291H141.346V29.6063C141.346 28.4976 141.786 27.4343 142.569 26.6498C143.352 25.8653 144.415 25.4238 145.523 25.4222H150.451C151.581 25.4253 152.664 25.8766 153.463 26.6772C154.261 27.4778 154.709 28.5623 154.709 29.693V41.8291Z" fill="black"/>
<path d="M178.309 29.693C178.306 28.175 177.702 26.7201 176.629 25.6467C175.556 24.5733 174.102 23.969 172.584 23.9659H167.656C166.162 23.969 164.73 24.5644 163.675 25.6217C162.619 26.6789 162.025 28.1118 162.023 29.6063V51.093C162.025 52.5874 162.619 54.0203 163.675 55.0776C164.73 56.1349 166.162 56.7303 167.656 56.7334H172.584C174.102 56.7303 175.556 56.1259 176.629 55.0526C177.702 53.9792 178.306 52.5243 178.309 51.0063V42.7075C178.309 42.5052 178.229 42.3112 178.086 42.1681C177.943 42.025 177.749 41.9447 177.547 41.9447H170.695C170.534 41.9462 170.379 42.0114 170.266 42.1261C170.152 42.2408 170.088 42.3958 170.088 42.5573V42.7942C170.088 42.9557 170.152 43.1106 170.266 43.2253C170.379 43.34 170.534 43.4052 170.695 43.4068H176.854V51.0063C176.852 52.1385 176.402 53.2239 175.601 54.0245C174.801 54.8251 173.716 55.2755 172.584 55.277H167.662C166.552 55.2755 165.488 54.8334 164.704 54.0478C163.92 53.2622 163.479 52.1974 163.479 51.0872V29.6063C163.481 28.4981 163.921 27.4356 164.704 26.6515C165.487 25.8673 166.548 25.4253 167.656 25.4222H172.584C173.716 25.4238 174.801 25.8742 175.601 26.6748C176.402 27.4754 176.852 28.5608 176.854 29.693V32.6172C176.853 32.7738 176.913 32.9246 177.021 33.0386C177.128 33.1525 177.275 33.2209 177.431 33.2298H177.668C177.83 33.2283 177.985 33.1633 178.1 33.0487C178.214 32.9341 178.279 32.7792 178.281 32.6172L178.309 29.693Z" fill="black"/>
<path d="M180.527 20.0824C180.427 20.083 180.327 20.1006 180.233 20.1344V21.163H180.475C180.839 21.163 181.174 21.0243 181.174 20.5851C181.174 20.1459 180.822 20.065 180.527 20.065M181.238 22.6483L180.331 21.3653H180.233V22.6483H179.921V19.9379C180.124 19.8482 180.345 19.8029 180.568 19.8049C180.681 19.7895 180.796 19.7981 180.906 19.8302C181.016 19.8624 181.118 19.9173 181.205 19.9915C181.292 20.0656 181.363 20.1573 181.413 20.2606C181.462 20.3639 181.489 20.4765 181.492 20.5909C181.492 21.059 181.14 21.3191 180.666 21.348L181.608 22.6483H181.238ZM180.66 19.2328C180.115 19.2344 179.593 19.4516 179.207 19.8371C178.822 20.2226 178.605 20.745 178.603 21.2902C178.603 21.8358 178.82 22.3591 179.206 22.745C179.592 23.1308 180.115 23.3475 180.66 23.3475C180.931 23.3483 181.199 23.2957 181.449 23.1926C181.699 23.0896 181.927 22.9381 182.118 22.747C182.31 22.5559 182.462 22.3288 182.565 22.0788C182.669 21.8289 182.723 21.5608 182.723 21.2902C182.721 20.744 182.503 20.2207 182.116 19.8351C181.73 19.4494 181.206 19.2328 180.66 19.2328ZM180.66 23.6365C180.352 23.6365 180.048 23.5758 179.763 23.4578C179.479 23.3398 179.221 23.1669 179.004 22.9489C178.786 22.731 178.614 22.4723 178.497 22.1876C178.38 21.903 178.32 21.598 178.32 21.2902C178.32 20.9823 178.38 20.6774 178.497 20.3927C178.614 20.1081 178.786 19.8494 179.004 19.6314C179.221 19.4135 179.479 19.2406 179.763 19.1226C180.048 19.0046 180.352 18.9439 180.66 18.9439C181.282 18.9439 181.879 19.1911 182.319 19.6311C182.759 20.0711 183.006 20.6679 183.006 21.2902C183.006 21.9125 182.759 22.5093 182.319 22.9493C181.879 23.3893 181.282 23.6365 180.66 23.6365Z" fill="black"/>
<path d="M20.7095 46.4119V50.5035C20.7095 52.8151 19.3403 54.7858 16.9312 55.8781L16.8734 55.9069C16.9427 55.6007 17.0063 55.2886 17.0641 54.9823C17.1218 54.676 17.1854 54.3697 17.2316 54.0576L17.2952 54.0114C17.8874 53.6352 18.377 53.1177 18.7199 52.5054C19.0627 51.8931 19.2481 51.2052 19.2594 50.5035V46.4119C19.2625 45.5204 18.9796 44.6514 18.4524 43.9326C17.9252 43.2138 17.1814 42.6831 16.3304 42.4185L16.0646 42.3319L9.17235 40.1474L5.61357 38.9915C4.3408 38.5967 3.22836 37.8036 2.44002 36.7289C1.65167 35.6542 1.22907 34.3547 1.23443 33.0217V29.9877C1.23624 29.7011 1.26136 29.415 1.30953 29.1324C1.30953 29.1035 1.30953 29.0862 1.30953 29.0573C1.48748 28.297 1.82049 27.5817 2.28774 26.9561C2.75499 26.3306 3.34638 25.8084 4.02483 25.4222C5.56859 24.4819 7.3418 23.986 9.14924 23.989H12.4943C16.2264 23.989 20.2589 26.3527 20.2589 30.1842V32.5825C20.2589 32.7465 20.1938 32.9038 20.0778 33.0198C19.9619 33.1357 19.8047 33.2009 19.6407 33.2009H19.4154C19.2515 33.2009 19.0942 33.1357 18.9783 33.0198C18.8624 32.9038 18.7972 32.7465 18.7972 32.5825V30.1842C18.7972 27.3467 15.5389 25.4396 12.4943 25.4396H9.14924C7.56111 25.4339 6.00488 25.8853 4.66611 26.7399C4.08788 27.0701 3.60215 27.5408 3.2538 28.1085C2.90544 28.6761 2.70568 29.3225 2.67295 29.9877V33.0217C2.67059 34.0454 2.99566 35.0429 3.60063 35.8685C4.2056 36.6941 5.05875 37.3045 6.03531 37.6103L7.49696 38.0727L15.1171 40.4825L16.7579 41.0027C17.909 41.3618 18.9144 42.0813 19.6258 43.0551C20.3372 44.029 20.7171 45.2057 20.7095 46.4119Z" fill="black"/>
<path d="M13.5135 55.2481C13.5135 55.7278 13.4557 56.2075 13.4037 56.6814H8.33709C4.72631 56.6814 1 54.3697 1 50.5209V48.03C0.999972 47.8665 1.06411 47.7095 1.17863 47.5928C1.29316 47.476 1.44892 47.4089 1.61239 47.4059H1.83769C2.00217 47.4074 2.1594 47.4739 2.27516 47.5908C2.39093 47.7076 2.45587 47.8655 2.45586 48.03V50.5209C2.45586 53.4682 5.44269 55.225 8.33709 55.225H13.5366V55.2597L13.5135 55.2481Z" fill="black"/>
<path d="M4.06062 25.4454C3.38217 25.8315 2.7908 26.3538 2.32355 26.9793C1.8563 27.6048 1.52327 28.3201 1.34532 29.0804C1.34532 29.1093 1.34532 29.1266 1.34532 29.1555L1.30488 29.0746C-0.260753 25.0293 -0.65938 20.2789 1.52442 15.7018C5.27385 7.84224 15.1472 0.450769 15.7653 0C15.1876 0.502781 6.21554 8.09073 3.34425 15.8925C2.14836 19.1346 2.65675 22.3073 4.02596 25.3471V25.3991L4.06062 25.4454Z" fill="url(#paint0_linear_2770_12680)"/>
<path d="M15.1225 40.4421L15.1572 40.5057L7.53699 38.0958L7.47921 38.0264C7.13258 37.6392 6.78016 37.2578 6.39309 36.8706C4.98316 35.4646 3.76692 33.8767 2.77653 32.1491L2.71875 32.0335V30.0108C2.75148 29.3456 2.95126 28.6993 3.29961 28.1316C3.64797 27.564 4.13368 27.0933 4.71191 26.763L4.74079 26.815C6.92458 30.8141 10.4256 34.5705 13.2969 37.9109C13.9733 38.6871 14.5785 39.5227 15.1052 40.4074L15.1225 40.4421Z" fill="url(#paint1_linear_2770_12680)"/>
<path d="M17.2708 53.9421C17.2708 53.9421 17.2708 53.971 17.2708 53.9825V54.0577C17.2246 54.3697 17.1668 54.676 17.1033 54.9823C17.0397 55.2886 16.9819 55.6007 16.9126 55.9069C16.9126 55.9069 16.9126 55.9359 16.9126 55.9532C16.5171 57.643 16.0115 59.3052 15.399 60.929C12.7934 67.8639 8.29873 74.0475 3.75781 80C5.94161 77.018 12.3659 67.4074 13.4231 56.8201V56.7334C13.4231 56.7334 13.4231 56.6987 13.4231 56.6813C13.4751 56.2075 13.5098 55.7278 13.5329 55.2481V55.2135C13.5354 55.1962 13.5354 55.1787 13.5329 55.1615C13.8732 49.85 12.3759 44.5831 9.29241 40.2456L9.22886 40.1705L16.0865 42.3319L16.1211 42.4012L16.1558 42.459C17.7041 46.0883 17.8947 50.0354 17.2708 53.9421Z" fill="url(#paint2_linear_2770_12680)"/>
</g>
<defs>
<linearGradient id="paint0_linear_2770_12680" x1="-0.000775923" y1="14.5749" x2="15.7538" y2="14.5749" gradientUnits="userSpaceOnUse">
<stop stop-color="#F3CC71"/>
<stop offset="0.4" stop-color="#F3CC71"/>
<stop offset="1" stop-color="#B08039"/>
</linearGradient>
<linearGradient id="paint1_linear_2770_12680" x1="2.71297" y1="33.6343" x2="15.1572" y2="33.6343" gradientUnits="userSpaceOnUse">
<stop stop-color="#F3CC71"/>
<stop offset="0.4" stop-color="#F3CC71"/>
<stop offset="1" stop-color="#B08039"/>
</linearGradient>
<linearGradient id="paint2_linear_2770_12680" x1="3.72893" y1="60.0737" x2="17.6059" y2="60.0737" gradientUnits="userSpaceOnUse">
<stop stop-color="#F3CC71"/>
<stop offset="0.4" stop-color="#F3CC71"/>
<stop offset="1" stop-color="#B08039"/>
</linearGradient>
<clipPath id="clip0_2770_12680">
<rect width="183" height="80" fill="white"/>
</clipPath>
</defs>
</svg>
