<svg width="137" height="60" viewBox="0 0 137 60" fill="none" xmlns="http://www.w3.org/2000/svg">
<g clip-path="url(#clip0_2797_7932)">
<path d="M36.0019 42.511H36.1749C36.2962 42.5099 36.4121 42.4611 36.4979 42.3752C36.5836 42.2893 36.6322 42.1731 36.6334 42.0516V18.5032C36.6344 18.3788 36.5916 18.258 36.5125 18.162C36.4334 18.0661 36.323 18.0012 36.2009 17.9788C36.0785 17.9527 35.9508 17.9711 35.8407 18.0306C35.7306 18.0902 35.6452 18.187 35.5997 18.3038L27.8968 37.3445L27.8579 37.2535L20.1939 18.3038C20.1484 18.187 20.063 18.0902 19.9529 18.0306C19.8428 17.9711 19.7151 17.9527 19.5927 17.9788C19.4702 18.0004 19.3594 18.0651 19.2801 18.1612C19.2008 18.2573 19.1583 18.3785 19.1602 18.5032V42.0516C19.1613 42.1731 19.21 42.2893 19.2957 42.3752C19.3815 42.4611 19.4974 42.5099 19.6187 42.511H19.7917C19.9133 42.511 20.0299 42.4626 20.1158 42.3765C20.2018 42.2903 20.2501 42.1734 20.2501 42.0516V21.3552L20.328 21.5459L27.3086 38.7965C27.3544 38.9151 27.4353 39.0169 27.5404 39.0881C27.6455 39.1594 27.7699 39.1968 27.8968 39.1953C28.0237 39.1968 28.148 39.1594 28.2532 39.0881C28.3583 39.0169 28.4392 38.9151 28.485 38.7965L35.5435 21.3552V42.0516C35.5435 42.1734 35.5918 42.2903 35.6777 42.3765C35.7637 42.4626 35.8803 42.511 36.0019 42.511Z" fill="white"/>
<path d="M44.6424 42.5284H50.7407C51.6993 42.5272 52.6183 42.1451 53.2961 41.4658C53.974 40.7865 54.3553 39.8655 54.3564 38.9049V21.7973C54.3553 20.7838 53.953 19.8121 53.2379 19.0954C52.5227 18.3787 51.5531 17.9756 50.5418 17.9744H44.0931C43.229 17.9756 42.4006 18.3204 41.79 18.9332C41.1793 19.5459 40.8364 20.3765 40.8364 21.2425V22.0877C40.8358 22.1484 40.8472 22.2086 40.87 22.2648C40.8928 22.3211 40.9265 22.3723 40.9691 22.4154C41.0117 22.4585 41.0625 22.4927 41.1184 22.5161C41.1743 22.5394 41.2342 22.5515 41.2948 22.5515H41.4678C41.5898 22.5503 41.7064 22.501 41.7923 22.4141C41.8781 22.3273 41.9263 22.2099 41.9263 22.0877V21.2468C41.9263 20.6721 42.1541 20.1208 42.5597 19.7144C42.9652 19.308 43.5153 19.0797 44.0888 19.0797H50.5374C51.2597 19.0808 51.9521 19.3689 52.4629 19.8807C52.9736 20.3926 53.2611 21.0865 53.2622 21.8103V26.0579L53.193 25.9973C52.5342 25.3852 51.6693 25.0447 50.771 25.0437H44.2099C43.314 25.0437 42.4549 25.4004 41.8214 26.0352C41.1879 26.67 40.832 27.531 40.832 28.4288V38.7272C40.8366 39.7369 41.2401 40.7037 41.9542 41.4161C42.6682 42.1284 43.6348 42.5284 44.6424 42.5284ZM41.9263 28.4158C41.9263 28.1147 41.9854 27.8166 42.1004 27.5384C42.2154 27.2602 42.3839 27.0074 42.5964 26.7945C42.8088 26.5816 43.0611 26.4127 43.3386 26.2975C43.6162 26.1823 43.9138 26.1229 44.2142 26.1229H50.7753C51.4357 26.1241 52.0687 26.3875 52.5356 26.8554C53.0026 27.3234 53.2654 27.9577 53.2665 28.6195V38.9005C53.2654 39.5715 52.9989 40.2147 52.5255 40.6891C52.052 41.1636 51.4102 41.4306 50.7407 41.4318H44.6424C43.922 41.4318 43.2312 41.145 42.7218 40.6345C42.2124 40.1241 41.9263 39.4317 41.9263 38.7098V28.4158Z" fill="white"/>
<path d="M71.8502 41.7915L67.244 32.0523H67.3002C68.4037 31.9083 69.4174 31.3673 70.1526 30.5301C70.8878 29.6929 71.2943 28.6165 71.2965 27.5013V22.6555C71.2954 21.4143 70.8029 20.2244 69.9272 19.3467C69.0514 18.4691 67.864 17.9756 66.6255 17.9744H58.9615C58.8101 17.9744 58.6649 18.0347 58.5578 18.142C58.4508 18.2493 58.3906 18.3948 58.3906 18.5466V42.0429C58.3918 42.1652 58.441 42.282 58.5277 42.3681C58.6143 42.4541 58.7314 42.5024 58.8534 42.5023H59.0221C59.1437 42.5023 59.2603 42.4539 59.3463 42.3678C59.4322 42.2816 59.4805 42.1648 59.4805 42.0429V32.074H66.0589V32.1L70.8597 42.2466C70.9228 42.3768 71.0347 42.4765 71.1711 42.524C71.2404 42.5521 71.3151 42.5647 71.3898 42.561C71.4644 42.5572 71.5374 42.5372 71.6036 42.5023C71.7286 42.439 71.8241 42.3294 71.8701 42.1968C71.9161 42.0642 71.909 41.9189 71.8502 41.7915ZM59.4762 30.9947V19.0667H66.6212C67.571 19.0667 68.4818 19.4448 69.1534 20.1178C69.825 20.7909 70.2023 21.7037 70.2023 22.6555V27.5013C70.2012 28.4282 69.8329 29.3168 69.1785 29.9718C68.5241 30.6268 67.6369 30.9947 66.712 30.9947H59.4762Z" fill="white"/>
<path d="M79.538 42.511H79.6807C79.8069 42.511 79.9279 42.4608 80.0171 42.3714C80.1063 42.282 80.1564 42.1607 80.1564 42.0342V19.0623H86.2937C86.356 19.0629 86.4177 19.0511 86.4754 19.0276C86.5331 19.0041 86.5856 18.9694 86.6298 18.9255C86.6741 18.8816 86.7092 18.8293 86.7331 18.7717C86.7571 18.7141 86.7694 18.6523 86.7694 18.5899V18.4425C86.7694 18.3801 86.7571 18.3183 86.7331 18.2607C86.7092 18.2031 86.6741 18.1508 86.6298 18.1069C86.5856 18.063 86.5331 18.0283 86.4754 18.0048C86.4177 17.9813 86.356 17.9695 86.2937 17.9701H72.925C72.8627 17.9695 72.8009 17.9813 72.7432 18.0048C72.6855 18.0283 72.6331 18.063 72.5888 18.1069C72.5446 18.1508 72.5095 18.2031 72.4855 18.2607C72.4616 18.3183 72.4492 18.3801 72.4492 18.4425V18.5899C72.4492 18.6523 72.4616 18.7141 72.4855 18.7717C72.5095 18.8293 72.5446 18.8816 72.5888 18.9255C72.6331 18.9694 72.6855 19.0041 72.7432 19.0276C72.8009 19.0511 72.8627 19.0629 72.925 19.0623H79.0838V42.0342C79.0826 42.1573 79.1294 42.276 79.2142 42.3651C79.299 42.4541 79.4152 42.5065 79.538 42.511Z" fill="white"/>
<path d="M90.5349 17.9788H90.2581C90.1503 17.9788 90.0469 18.0217 89.9706 18.0981C89.8944 18.1745 89.8516 18.2781 89.8516 18.3862V41.9346C89.8516 42.0855 89.9111 42.2304 90.0172 42.3376C90.1234 42.4448 90.2675 42.5055 90.4181 42.5067H101.91C102.016 42.5005 102.115 42.4556 102.19 42.3805C102.265 42.3054 102.31 42.2053 102.316 42.0993V41.8219C102.316 41.7138 102.274 41.6102 102.197 41.5338C102.121 41.4574 102.018 41.4144 101.91 41.4144H90.9415V18.3862C90.9415 18.2781 90.8986 18.1745 90.8224 18.0981C90.7462 18.0217 90.6428 17.9788 90.5349 17.9788Z" fill="white"/>
<path d="M116.912 22.2697C116.911 21.1324 116.46 20.0418 115.658 19.2368C114.857 18.4318 113.769 17.9779 112.634 17.9744H108.928C107.809 17.9756 106.736 18.4218 105.946 19.215C105.155 20.0082 104.711 21.0835 104.711 22.2047V38.3154C104.711 39.4377 105.156 40.5142 105.947 41.3082C106.739 42.1022 107.812 42.5489 108.932 42.55H112.617C113.752 42.5477 114.839 42.0948 115.641 41.2904C116.443 40.4861 116.893 39.396 116.895 38.259V36.0139C116.895 35.8928 116.847 35.7766 116.762 35.6905C116.677 35.6045 116.561 35.5556 116.44 35.5544H116.28C116.159 35.5556 116.043 35.6043 115.957 35.6903C115.872 35.7762 115.823 35.8924 115.822 36.0139V38.2547C115.821 39.1031 115.484 39.9165 114.886 40.5168C114.288 41.1171 113.477 41.4555 112.63 41.4578H108.928C108.098 41.4566 107.303 41.1255 106.716 40.5371C106.13 39.9488 105.801 39.1512 105.801 38.3197V32.4554H116.328C116.478 32.4554 116.622 32.3956 116.729 32.2891C116.835 32.1826 116.895 32.0382 116.895 31.8876L116.912 22.2697ZM115.822 31.3718H105.818V22.2047C105.818 21.3732 106.147 20.5757 106.734 19.9873C107.32 19.3989 108.115 19.0678 108.945 19.0667H112.634C113.481 19.069 114.291 19.4074 114.889 20.0079C115.486 20.6083 115.822 21.4217 115.822 22.2697V31.3718Z" fill="white"/>
<path d="M133.489 22.2697C133.487 21.1313 133.035 20.0401 132.231 19.235C131.428 18.43 130.339 17.9767 129.203 17.9744H125.514C124.395 17.9767 123.323 18.4233 122.533 19.2162C121.743 20.0092 121.298 21.0839 121.297 22.2047V38.3197C121.298 39.4406 121.743 40.5152 122.533 41.3082C123.323 42.1012 124.395 42.5477 125.514 42.55H129.203C130.339 42.5477 131.428 42.0945 132.231 41.2894C133.035 40.4844 133.487 39.3932 133.489 38.2547V32.0306C133.489 31.8789 133.429 31.7334 133.322 31.6261C133.215 31.5188 133.07 31.4585 132.918 31.4585H127.789C127.668 31.4596 127.552 31.5086 127.467 31.5946C127.382 31.6806 127.335 31.7968 127.335 31.9179V32.0956C127.335 32.2167 127.382 32.333 127.467 32.419C127.552 32.505 127.668 32.5539 127.789 32.5551H132.399V38.2547C132.398 39.1039 132.061 39.9179 131.462 40.5184C130.863 41.1188 130.05 41.4566 129.203 41.4578H125.518C124.687 41.4566 123.891 41.125 123.304 40.5359C122.717 39.9467 122.387 39.1481 122.387 38.3154V22.2047C122.388 21.3736 122.718 20.5767 123.304 19.9886C123.89 19.4005 124.684 19.069 125.514 19.0667H129.203C130.05 19.0678 130.863 19.4057 131.462 20.0061C132.061 20.6065 132.398 21.4206 132.399 22.2697V24.4629C132.399 24.5804 132.444 24.6935 132.524 24.7789C132.605 24.8644 132.715 24.9157 132.832 24.9223H133.009C133.13 24.9212 133.246 24.8724 133.332 24.7865C133.418 24.7006 133.466 24.5844 133.468 24.4629L133.489 22.2697Z" fill="white"/>
<path d="M135.148 15.0618C135.073 15.0623 134.999 15.0755 134.928 15.1008V15.8723H135.109C135.382 15.8723 135.633 15.7683 135.633 15.4388C135.633 15.1094 135.369 15.0488 135.148 15.0488M135.68 16.9862L135.001 16.024H134.928V16.9862H134.694V14.9534C134.847 14.8862 135.012 14.8522 135.179 14.8537C135.263 14.8421 135.35 14.8486 135.432 14.8727C135.514 14.8968 135.591 14.938 135.656 14.9936C135.721 15.0492 135.774 15.118 135.811 15.1955C135.848 15.2729 135.868 15.3573 135.871 15.4432C135.871 15.7943 135.607 15.9893 135.252 16.011L135.957 16.9862H135.68ZM135.248 14.4246C134.84 14.4258 134.449 14.5887 134.16 14.8778C133.872 15.167 133.709 15.5588 133.708 15.9676C133.708 16.3769 133.87 16.7693 134.159 17.0587C134.448 17.3481 134.839 17.5107 135.248 17.5107C135.45 17.5112 135.651 17.4717 135.838 17.3945C136.026 17.3172 136.196 17.2036 136.339 17.0603C136.483 16.9169 136.597 16.7466 136.674 16.5591C136.752 16.3716 136.792 16.1706 136.792 15.9676C136.791 15.558 136.627 15.1655 136.338 14.8763C136.049 14.587 135.656 14.4246 135.248 14.4246ZM135.248 17.7274C135.017 17.7274 134.789 17.6818 134.576 17.5933C134.364 17.5048 134.17 17.3752 134.008 17.2117C133.845 17.0482 133.716 16.8542 133.628 16.6407C133.54 16.4273 133.496 16.1985 133.496 15.9676C133.496 15.7367 133.54 15.508 133.628 15.2945C133.716 15.0811 133.845 14.887 134.008 14.7236C134.17 14.5601 134.364 14.4304 134.576 14.3419C134.789 14.2534 135.017 14.2079 135.248 14.2079C135.713 14.2079 136.16 14.3933 136.489 14.7233C136.819 15.0533 137.004 15.5009 137.004 15.9676C137.004 16.4343 136.819 16.8819 136.489 17.212C136.16 17.542 135.713 17.7274 135.248 17.7274Z" fill="white"/>
<path d="M15.5055 34.8089V37.8776C15.5055 39.6114 14.4805 41.0894 12.6769 41.9085L12.6337 41.9302C12.6856 41.7005 12.7332 41.4664 12.7764 41.2367C12.8197 41.007 12.8673 40.7773 12.9019 40.5432L12.9494 40.5086C13.3928 40.2264 13.7593 39.8383 14.016 39.3791C14.2727 38.9199 14.4115 38.4039 14.4199 37.8776V34.8089C14.4222 34.1403 14.2105 33.4886 13.8158 32.9495C13.4211 32.4104 12.8643 32.0124 12.2272 31.8139L12.0282 31.7489L6.86842 30.1105L4.20419 29.2437C3.25135 28.9476 2.41855 28.3527 1.82836 27.5467C1.23818 26.7407 0.921813 25.766 0.925819 24.7663V22.4908C0.927179 22.2758 0.945984 22.0613 0.982046 21.8493C0.982046 21.8276 0.982046 21.8146 0.982046 21.793C1.11526 21.2227 1.36457 20.6863 1.71437 20.2171C2.06416 19.748 2.5069 19.3563 3.01481 19.0667C4.17052 18.3614 5.49801 17.9895 6.85112 17.9918H9.35532C12.1493 17.9918 15.1682 19.7645 15.1682 22.6382V24.4369C15.1682 24.5599 15.1194 24.6779 15.0326 24.7648C14.9458 24.8518 14.8281 24.9007 14.7054 24.9007H14.5367C14.414 24.9007 14.2963 24.8518 14.2095 24.7648C14.1227 24.6779 14.0739 24.5599 14.0739 24.4369V22.6382C14.0739 20.51 11.6346 19.0797 9.35532 19.0797H6.85112C5.66219 19.0754 4.49714 19.4139 3.49489 20.0549C3.06201 20.3026 2.69838 20.6556 2.43759 21.0814C2.1768 21.5071 2.02725 21.9918 2.00275 22.4908V24.7663C2.00098 25.534 2.24434 26.2822 2.69724 26.9014C3.15014 27.5206 3.78884 27.9784 4.51993 28.2078L5.61416 28.5545L11.3189 30.3619L12.5472 30.752C13.409 31.0213 14.1616 31.561 14.6942 32.2914C15.2268 33.0218 15.5112 33.9043 15.5055 34.8089Z" fill="white"/>
<path d="M10.118 41.4361C10.118 41.7959 10.0748 42.1556 10.0359 42.511H6.24279C3.53964 42.511 0.75 40.7773 0.75 37.8906V36.0225C0.749979 35.8999 0.797995 35.7821 0.883732 35.6946C0.969469 35.607 1.08607 35.5567 1.20845 35.5544H1.37712C1.50026 35.5556 1.61796 35.6054 1.70463 35.6931C1.7913 35.7807 1.83991 35.8991 1.83991 36.0225V37.8906C1.83991 40.1011 4.07595 41.4188 6.24279 41.4188H10.1353V41.4448L10.118 41.4361Z" fill="white"/>
<path d="M3.04188 19.084C2.53397 19.3737 2.09125 19.7653 1.74145 20.2345C1.39165 20.7036 1.14233 21.2401 1.00912 21.8103C1.00912 21.832 1.00912 21.845 1.00912 21.8667L0.978841 21.806C-0.193245 18.7719 -0.491671 15.2091 1.14319 11.7764C3.95015 5.88168 11.3416 0.338077 11.8044 0C11.3719 0.377086 4.65513 6.06805 2.50558 11.9194C1.6103 14.3509 1.9909 16.7305 3.01593 19.0103V19.0493L3.04188 19.084Z" fill="url(#paint0_linear_2797_7932)"/>
<path d="M11.321 30.3316L11.347 30.3793L5.64225 28.5718L5.599 28.5198C5.3395 28.2294 5.07567 27.9434 4.78589 27.653C3.73037 26.5984 2.81985 25.4075 2.07841 24.1118L2.03516 24.0251V22.5081C2.05966 22.0092 2.20922 21.5245 2.47001 21.0987C2.7308 20.673 3.09442 20.32 3.5273 20.0722L3.54892 20.1112C5.18379 23.1106 7.80477 25.9279 9.95432 28.4331C10.4607 29.0153 10.9138 29.642 11.308 30.3056L11.321 30.3316Z" fill="url(#paint1_linear_2797_7932)"/>
<path d="M12.9327 40.4565C12.9327 40.4565 12.9327 40.4782 12.9327 40.4869V40.5432C12.8981 40.7773 12.8548 41.007 12.8073 41.2367C12.7597 41.4665 12.7164 41.7005 12.6645 41.9302C12.6645 41.9302 12.6645 41.9519 12.6645 41.9649C12.3684 43.2323 11.9899 44.4789 11.5314 45.6967C9.58077 50.8979 6.21589 55.5356 2.81641 60C4.45127 57.7635 9.26072 50.5555 10.0522 42.615V42.55C10.0522 42.55 10.0522 42.524 10.0522 42.511C10.0911 42.1556 10.1171 41.7959 10.1344 41.4361V41.4101C10.1363 41.3972 10.1363 41.384 10.1344 41.3711C10.3891 37.3875 9.26817 33.4373 6.95979 30.1842L6.91222 30.1279L12.046 31.7489L12.072 31.8009L12.0979 31.8443C13.2571 34.5662 13.3998 37.5265 12.9327 40.4565Z" fill="url(#paint2_linear_2797_7932)"/>
</g>
<defs>
<linearGradient id="paint0_linear_2797_7932" x1="0.00138292" y1="10.9312" x2="11.7958" y2="10.9312" gradientUnits="userSpaceOnUse">
<stop stop-color="#F3CC71"/>
<stop offset="0.4" stop-color="#F3CC71"/>
<stop offset="1" stop-color="#B08039"/>
</linearGradient>
<linearGradient id="paint1_linear_2797_7932" x1="2.03083" y1="25.2257" x2="11.347" y2="25.2257" gradientUnits="userSpaceOnUse">
<stop stop-color="#F3CC71"/>
<stop offset="0.4" stop-color="#F3CC71"/>
<stop offset="1" stop-color="#B08039"/>
</linearGradient>
<linearGradient id="paint2_linear_2797_7932" x1="2.79478" y1="45.0553" x2="13.1835" y2="45.0553" gradientUnits="userSpaceOnUse">
<stop stop-color="#F3CC71"/>
<stop offset="0.4" stop-color="#F3CC71"/>
<stop offset="1" stop-color="#B08039"/>
</linearGradient>
<clipPath id="clip0_2797_7932">
<rect width="137" height="60" fill="white"/>
</clipPath>
</defs>
</svg>
