<svg width="40" height="40" viewBox="0 0 40 40" fill="none" xmlns="http://www.w3.org/2000/svg">
<mask id="mask0_2896_8248" style="mask-type:alpha" maskUnits="userSpaceOnUse" x="0" y="0" width="40" height="40">
<rect width="40" height="40" fill="#D9D9D9"/>
</mask>
<g mask="url(#mask0_2896_8248)">
<path d="M14.4564 33.3334L6.66797 25.545V14.4552L14.4564 6.66675H25.5462L33.3346 14.4552V25.545L25.5462 33.3334H14.4564ZM15.2513 25.9296L20.0013 21.1796L24.7513 25.9296L25.9308 24.7501L21.1808 20.0001L25.9308 15.2501L24.7513 14.0706L20.0013 18.8206L15.2513 14.0706L14.0718 15.2501L18.8218 20.0001L14.0718 24.7501L15.2513 25.9296ZM15.168 31.6667H24.8346L31.668 24.8334V15.1667L24.8346 8.33341H15.168L8.33464 15.1667V24.8334L15.168 31.6667Z" fill="#9F4444"/>
</g>
</svg>
