<svg width="48" height="60" viewBox="0 0 48 60" fill="none" xmlns="http://www.w3.org/2000/svg">
<path d="M3.42855 0H32.5594L48 16.8226V56.25C48 58.3218 46.4641 60 44.5715 60H3.42855C1.53592 60 0 58.3218 0 56.25V3.74996C0 1.67816 1.5361 0 3.42855 0Z" fill="#866857"/>
<path d="M47.9414 16.8746H35.991C34.0984 16.8746 32.5625 15.1947 32.5625 13.1246V0.0371094L47.9414 16.8746Z" fill="white"/>
<mask id="mask0_3250_3593" style="mask-type:alpha" maskUnits="userSpaceOnUse" x="9" y="20" width="30" height="30">
<rect x="9" y="20" width="30" height="30" fill="#866857"/>
</mask>
<g mask="url(#mask0_3250_3593)">
<path d="M24 39.4712L19.5769 35.0481L20.4616 34.1491L23.375 37.0625V26.25H24.625V37.0625L27.5384 34.1491L28.4231 35.0481L24 39.4712ZM17.2694 43.75C16.694 43.75 16.2135 43.5573 15.8281 43.1719C15.4427 42.7865 15.25 42.306 15.25 41.7306V38.7019H16.5V41.7306C16.5 41.9231 16.5801 42.0995 16.7403 42.2597C16.9005 42.4199 17.0769 42.5 17.2694 42.5H30.7306C30.9231 42.5 31.0995 42.4199 31.2597 42.2597C31.4199 42.0995 31.5 41.9231 31.5 41.7306V38.7019H32.75V41.7306C32.75 42.306 32.5573 42.7865 32.1719 43.1719C31.7865 43.5573 31.306 43.75 30.7306 43.75H17.2694Z" fill="white"/>
</g>
</svg>
