<svg version="1.1" xmlns="http://www.w3.org/2000/svg" xmlns:xlink="http://www.w3.org/1999/xlink">

    <symbol viewBox="0 0 16 16" id="icon-ext-link">
        <path d="M3.5372 13.6667C3.20042 13.6667 2.91536 13.55 2.68203 13.3167C2.4487 13.0833 2.33203 12.7983 2.33203 12.4615V3.5385C2.33203 3.20172 2.4487 2.91667 2.68203 2.68333C2.91536 2.45 3.20042 2.33333 3.5372 2.33333H7.7422V3.33333H3.5372C3.48586 3.33333 3.43886 3.35472 3.3962 3.3975C3.35342 3.44016 3.33203 3.48717 3.33203 3.5385V12.4615C3.33203 12.5128 3.35342 12.5598 3.3962 12.6025C3.43886 12.6453 3.48586 12.6667 3.5372 12.6667H12.4602C12.5115 12.6667 12.5585 12.6453 12.6012 12.6025C12.644 12.5598 12.6654 12.5128 12.6654 12.4615V8.2565H13.6654V12.4615C13.6654 12.7983 13.5487 13.0833 13.3154 13.3167C13.082 13.55 12.797 13.6667 12.4602 13.6667H3.5372ZM6.4782 10.223L5.7757 9.5205L11.9629 3.33333H9.33203V2.33333H13.6654V6.66667H12.6654V4.03583L6.4782 10.223Z" />
    </symbol>

    <symbol viewBox="0 0 24 24" id="icon-user">
        <path d="M6.19625 17.4845C7.04625 16.873 7.94817 16.3894 8.902 16.0337C9.85583 15.6779 10.8885 15.5 12 15.5C13.1115 15.5 14.1442 15.6779 15.098 16.0337C16.0518 16.3894 16.9538 16.873 17.8038 17.4845C18.4641 16.8012 18.9952 15.9942 19.397 15.0635C19.799 14.1327 20 13.1115 20 12C20 9.78333 19.2208 7.89583 17.6625 6.3375C16.1042 4.77917 14.2167 4 12 4C9.78333 4 7.89583 4.77917 6.3375 6.3375C4.77917 7.89583 4 9.78333 4 12C4 13.1115 4.201 14.1327 4.603 15.0635C5.00483 15.9942 5.53592 16.8012 6.19625 17.4845ZM9.86825 11.6318C9.28942 11.0529 9 10.3423 9 9.5C9 8.65767 9.28942 7.94708 9.86825 7.36825C10.4471 6.78942 11.1577 6.5 12 6.5C12.8423 6.5 13.5529 6.78942 14.1318 7.36825C14.7106 7.94708 15 8.65767 15 9.5C15 10.3423 14.7106 11.0529 14.1318 11.6318C13.5529 12.2106 12.8423 12.5 12 12.5C11.1577 12.5 10.4471 12.2106 9.86825 11.6318ZM12 21C10.7448 21 9.56983 20.7663 8.475 20.299C7.38017 19.8317 6.42758 19.1929 5.61725 18.3828C4.80708 17.5724 4.16833 16.6198 3.701 15.525C3.23367 14.4302 3 13.2552 3 12C3 10.7448 3.23367 9.56983 3.701 8.475C4.16833 7.38017 4.80708 6.42758 5.61725 5.61725C6.42758 4.80708 7.38017 4.16833 8.475 3.701C9.56983 3.23367 10.7448 3 12 3C13.2552 3 14.4302 3.23367 15.525 3.701C16.6198 4.16833 17.5724 4.80708 18.3828 5.61725C19.1929 6.42758 19.8317 7.38017 20.299 8.475C20.7663 9.56983 21 10.7448 21 12C21 13.2552 20.7663 14.4302 20.299 15.525C19.8317 16.6198 19.1929 17.5724 18.3828 18.3828C17.5724 19.1929 16.6198 19.8317 15.525 20.299C14.4302 20.7663 13.2552 21 12 21ZM14.7212 19.5163C15.6134 19.1939 16.3845 18.7526 17.0345 18.1923C16.3845 17.6704 15.6326 17.2579 14.7788 16.9548C13.9249 16.6516 12.9987 16.5 12 16.5C11.0013 16.5 10.0718 16.6484 9.2115 16.9453C8.35133 17.2421 7.60267 17.6578 6.9655 18.1923C7.6155 18.7526 8.38658 19.1939 9.27875 19.5163C10.1711 19.8388 11.0782 20 12 20C12.9218 20 13.8289 19.8388 14.7212 19.5163ZM13.4212 10.9212C13.8071 10.5352 14 10.0615 14 9.5C14 8.9385 13.8071 8.46475 13.4212 8.07875C13.0352 7.69292 12.5615 7.5 12 7.5C11.4385 7.5 10.9648 7.69292 10.5788 8.07875C10.1929 8.46475 10 8.9385 10 9.5C10 10.0615 10.1929 10.5352 10.5788 10.9212C10.9648 11.3071 11.4385 11.5 12 11.5C12.5615 11.5 13.0352 11.3071 13.4212 10.9212Z" />
    </symbol>

    <symbol viewBox="0 0 24 24" id="burger-menu-link">
        <path d="M0 6.5V5H24V6.5H0ZM0 18V16.5H24V18H0ZM0 12.25V10.75H24V12.25H0Z" />
    </symbol>

    <symbol viewBox="0 0 24 24" id="burger-menu-close">
        <path d="M4.65574 20L4 19.3443L11.3443 12L4 4.65574L4.65574 4L12 11.3443L19.3443 4L20 4.65574L12.6557 12L20 19.3443L19.3443 20L12 12.6557L4.65574 20Z" />
    </symbol>

    <symbol viewBox="0 0 24 24" id="icon-cart">
        <path d="M7.40078 20.8496C7.01745 20.8496 6.69661 20.7204 6.43828 20.4621C6.17995 20.2038 6.05078 19.8829 6.05078 19.4996C6.05078 19.1163 6.17995 18.7954 6.43828 18.5371C6.69661 18.2788 7.01745 18.1496 7.40078 18.1496C7.78411 18.1496 8.10495 18.2788 8.36328 18.5371C8.62161 18.7954 8.75078 19.1163 8.75078 19.4996C8.75078 19.8829 8.62161 20.2038 8.36328 20.4621C8.10495 20.7204 7.78411 20.8496 7.40078 20.8496ZM16.6008 20.8496C16.2174 20.8496 15.8966 20.7204 15.6383 20.4621C15.3799 20.2038 15.2508 19.8829 15.2508 19.4996C15.2508 19.1163 15.3799 18.7954 15.6383 18.5371C15.8966 18.2788 16.2174 18.1496 16.6008 18.1496C16.9841 18.1496 17.3049 18.2788 17.5633 18.5371C17.8216 18.7954 17.9508 19.1163 17.9508 19.4996C17.9508 19.8829 17.8216 20.2038 17.5633 20.4621C17.3049 20.7204 16.9841 20.8496 16.6008 20.8496ZM5.80078 5.34961L8.55078 11.1496H15.0758C15.2258 11.1496 15.3591 11.1121 15.4758 11.0371C15.5924 10.9621 15.6924 10.8579 15.7758 10.7246L18.3508 6.04961C18.4508 5.86628 18.4591 5.70378 18.3758 5.56211C18.2924 5.42044 18.1508 5.34961 17.9508 5.34961H5.80078ZM5.45078 4.64961H17.9508C18.4008 4.64961 18.7383 4.82878 18.9633 5.18711C19.1883 5.54544 19.2008 5.91628 19.0008 6.29961L16.3508 11.1496C16.2174 11.3663 16.0466 11.5371 15.8383 11.6621C15.6299 11.7871 15.4008 11.8496 15.1508 11.8496H8.10078L6.85078 14.1496C6.71745 14.3496 6.71328 14.5663 6.83828 14.7996C6.96328 15.0329 7.15078 15.1496 7.40078 15.1496H17.9508V15.8496H7.40078C6.86745 15.8496 6.47161 15.6288 6.21328 15.1871C5.95495 14.7454 5.95078 14.2996 6.20078 13.8496L7.75078 11.0996L4.05078 3.34961H2.30078V2.64961H4.50078L5.45078 4.64961Z" />
    </symbol>

    <symbol viewBox="0 0 39 24" id="ornament">
        <rect x="7.07031" y="4.94978" width="9" height="9" transform="rotate(45 7.07031 4.94978)" />
        <rect x="19.457" y="0.707107" width="15" height="15" transform="rotate(45 19.457 0.707107)" />
        <rect x="31.8398" y="4.94978" width="9" height="9" transform="rotate(45 31.8398 4.94978)" />
    </symbol>

    <symbol viewBox="0 0 24 24" id="faq-arrow">
        <path d="M11.9986 12.9462L16.5986 8.34619L17.6523 9.39994L11.9986 15.0537L6.34484 9.39994L7.39859 8.34619L11.9986 12.9462Z" />
    </symbol>

    <symbol viewBox="0 0 24 24" id="btn-arrow">
        <path d="M14.0948 6.69211L19.4023 11.9999L14.0948 17.3076L13.3871 16.5884L17.4756 12.4999L4.59485 12.4999L4.59485 11.4999L17.4756 11.4999L13.3871 7.41136L14.0948 6.69211Z" />
    </symbol>

    <symbol viewBox="0 0 32 32" id="footer-social-vk">
        <path fill-rule="evenodd" clip-rule="evenodd" d="M23.4688 11.6543C23.5862 11.2852 23.4688 11.0168 22.9487 11.0168H21.2206C20.7844 11.0168 20.5831 11.2517 20.4656 11.5033C20.4656 11.5033 19.5764 13.6508 18.3349 15.0434C17.9322 15.446 17.7477 15.5802 17.5296 15.5802C17.4121 15.5802 17.2611 15.446 17.2611 15.0769V11.6375C17.2611 11.2013 17.1269 11 16.7578 11H14.0399C13.7714 11 13.6037 11.2013 13.6037 11.4027C13.6037 11.8221 14.2244 11.9228 14.2915 13.0972V15.6473C14.2915 16.201 14.1909 16.3017 13.9728 16.3017C13.3855 16.3017 11.9595 14.1374 11.1038 11.6711C10.936 11.1846 10.7683 11 10.3321 11H8.58721C8.08389 11 8 11.2349 8 11.4865C8 11.9395 8.58721 14.2213 10.7347 17.2412C12.1608 19.3048 14.1909 20.4121 16.0196 20.4121C17.1269 20.4121 17.2611 20.1605 17.2611 19.741V18.1807C17.2611 17.6774 17.3618 17.5935 17.7141 17.5935C17.9658 17.5935 18.4188 17.7277 19.4422 18.7176C20.6166 19.892 20.8179 20.4289 21.4723 20.4289H23.2003C23.7037 20.4289 23.9385 20.1772 23.8043 19.6907C23.6533 19.2042 23.0829 18.4995 22.3447 17.6606C21.942 17.1909 21.338 16.6708 21.1535 16.4191C20.9018 16.0836 20.9689 15.9493 21.1535 15.6473C21.1367 15.6473 23.2507 12.661 23.4688 11.6543Z" />
    </symbol>

    <symbol viewBox="0 0 32 32" id="footer-social-max">
        <path d="M15.7571 9.00988C11.5868 9.22854 8.83386 12.5105 9.00779 16.649C9.08376 18.4605 9.80947 20.0192 9.98141 21.7384C10.0254 22.1838 9.89744 22.7334 10.4092 22.928C11.039 23.1667 12.0046 22.7655 12.5324 22.3984C12.7123 22.2761 12.8843 22.1336 13.0162 21.9571C13.562 22.3202 14.0798 22.6712 14.7295 22.8277C17.5904 23.5158 20.7251 21.941 22.1186 19.4114C24.7375 14.659 21.197 8.72501 15.7571 9.00988ZM14.1378 18.9279C13.9118 19.1044 13.6939 19.3452 13.444 19.4836C13.0822 19.6782 12.9702 19.4756 12.8343 19.1546C12.4064 18.1335 12.3545 16.3942 12.6044 15.325C12.9402 13.8706 14.0618 12.5907 15.6032 12.4543C17.1626 12.3159 18.61 13.1103 19.2637 14.5446C20.7111 17.7363 17.0066 20.8878 14.1378 18.9299V18.9279Z" />
    </symbol>

    <symbol viewBox="0 0 32 32" id="footer-social-rt">
        <path d="M18.7622 15.2759H11.9072V12.5602H18.7622C19.1612 12.5602 19.4406 12.6305 19.5795 12.7536C19.7184 12.8766 19.8062 13.1051 19.8062 13.4303V14.397C19.8062 14.7485 19.7201 14.9718 19.5795 15.1001C19.4389 15.2284 19.1612 15.2759 18.7622 15.2759ZM19.2315 10.0028H9V21.6035H11.9072V17.8298H17.2611L19.8062 21.6035H23.0615L20.2492 17.8122C21.2827 17.6593 21.7467 17.3429 22.1299 16.8209C22.5131 16.2988 22.7099 15.4639 22.7099 14.3513V13.4725C22.7228 12.9387 22.6583 12.4058 22.5184 11.8906C22.395 11.4946 22.1801 11.1332 21.8909 10.8359C21.5839 10.5433 21.2151 10.3234 20.8116 10.1926C20.2958 10.0554 19.7634 9.99087 19.2297 10.001L19.2315 10.0028Z" />
    </symbol>

    <symbol viewBox="0 0 5 7" id="breadcrumbs">
        <path d="M0.351562 0.353554L3.35156 3.35355L0.351562 6.35355" />
    </symbol>

    <symbol viewBox="0 0 24 24" id="icon-back">
        <path d="M13.9953 18.3078L8.6875 13L13.9953 7.69226L14.703 8.40001L10.103 13L14.703 17.6L13.9953 18.3078Z" />
    </symbol>

    <symbol viewBox="0 0 20 20" id="pager-prev">
        <path d="M8.92448 9.99997L12.7578 13.8333L12.168 14.4231L7.7449 9.99997L12.168 5.57685L12.7578 6.16664L8.92448 9.99997Z" />
    </symbol>

    <symbol viewBox="0 0 20 20" id="pager-next">
        <path d="M11.0755 10L7.24219 6.1667L7.83198 5.5769L12.2551 10L7.83198 14.4232L7.24219 13.8334L11.0755 10Z"/>
    </symbol>

    <symbol viewBox="0 0 9 5" id="page-size-arrow">
        <path d="M4.16667 4.16667L0 0H8.33333L4.16667 4.16667Z" />
    </symbol>

    <symbol viewBox="0 0 16 16" id="icon-info">
        <path d="M7.632 11.568V6.416H8.368V11.568H7.632ZM8 5.6C7.82933 5.6 7.70133 5.552 7.616 5.456C7.54133 5.34933 7.504 5.21067 7.504 5.04C7.504 4.85867 7.54133 4.72 7.616 4.624C7.70133 4.528 7.82933 4.48 8 4.48C8.16 4.48 8.27733 4.528 8.352 4.624C8.43733 4.72 8.48 4.85867 8.48 5.04C8.48 5.21067 8.43733 5.34933 8.352 5.456C8.27733 5.552 8.16 5.6 8 5.6ZM8 14.88C7.09333 14.88 6.24 14.7093 5.44 14.368C4.64 14.0267 3.936 13.5573 3.328 12.96C2.73067 12.352 2.26133 11.648 1.92 10.848C1.57867 10.048 1.408 9.19467 1.408 8.288C1.408 7.37067 1.57867 6.51733 1.92 5.728C2.26133 4.928 2.73067 4.22933 3.328 3.632C3.936 3.024 4.64 2.54933 5.44 2.208C6.24 1.86667 7.09333 1.696 8 1.696C8.91733 1.696 9.77067 1.86667 10.56 2.208C11.36 2.54933 12.0587 3.024 12.656 3.632C13.264 4.22933 13.7387 4.928 14.08 5.728C14.4213 6.51733 14.592 7.37067 14.592 8.288C14.592 9.19467 14.4213 10.048 14.08 10.848C13.7387 11.648 13.264 12.352 12.656 12.96C12.0587 13.5573 11.36 14.0267 10.56 14.368C9.77067 14.7093 8.91733 14.88 8 14.88ZM8 14.224C8.82133 14.224 9.58933 14.0693 10.304 13.76C11.0187 13.4507 11.648 13.024 12.192 12.48C12.736 11.936 13.1627 11.3067 13.472 10.592C13.7813 9.87733 13.936 9.10933 13.936 8.288C13.936 7.46667 13.7813 6.69867 13.472 5.984C13.1627 5.26933 12.736 4.64 12.192 4.096C11.648 3.552 11.0187 3.12533 10.304 2.816C9.58933 2.50667 8.82133 2.352 8 2.352C7.17867 2.352 6.41067 2.50667 5.696 2.816C4.98133 3.12533 4.352 3.552 3.808 4.096C3.264 4.64 2.83733 5.26933 2.528 5.984C2.21867 6.69867 2.064 7.46667 2.064 8.288C2.064 9.10933 2.21867 9.87733 2.528 10.592C2.83733 11.3067 3.264 11.936 3.808 12.48C4.352 13.024 4.98133 13.4507 5.696 13.76C6.41067 14.0693 7.17867 14.224 8 14.224Z" />
    </symbol>

    <symbol viewBox="0 0 24 24" id="icon-doc">
        <path d="M6.3077 21.5C5.80257 21.5 5.375 21.325 5.025 20.975C4.675 20.625 4.5 20.1974 4.5 19.6923V4.3077C4.5 3.80257 4.675 3.375 5.025 3.025C5.375 2.675 5.80257 2.5 6.3077 2.5H14.25L19.5 7.74995V19.6923C19.5 20.1974 19.325 20.625 18.975 20.975C18.625 21.325 18.1974 21.5 17.6922 21.5H6.3077ZM13.5 8.49995V3.99998H6.3077C6.23077 3.99998 6.16024 4.03203 6.09612 4.09613C6.03202 4.16024 5.99997 4.23077 5.99997 4.3077V19.6923C5.99997 19.7692 6.03202 19.8397 6.09612 19.9038C6.16024 19.9679 6.23077 20 6.3077 20H17.6922C17.7692 20 17.8397 19.9679 17.9038 19.9038C17.9679 19.8397 18 19.7692 18 19.6923V8.49995H13.5Z" />
    </symbol>

    <symbol viewBox="0 0 24 24" id="up-link">
        <path d="M6.34484 9.9521L11.9986 4.2981L17.6523 9.9521L16.5678 11.0058L12.7486 7.1866L12.7486 19.7021L11.2486 19.7021L11.2486 7.1866L7.42934 11.0058L6.34484 9.9521Z" />
    </symbol>

</svg>