<svg width="255" height="116" viewBox="0 0 255 116" fill="none" xmlns="http://www.w3.org/2000/svg">
<path d="M41.5731 67.6897C49.2407 67.5162 57.6765 67.6897 65.413 67.6897H254.668V86.7281C246.923 86.9125 238.449 86.7418 230.66 86.7418H41.5703L41.5731 67.6897Z" fill="#004B94"/>
<path d="M127.728 69.953C129.201 69.7095 130.712 69.9952 131.993 70.7597C133.161 71.47 134.328 72.9265 134.526 74.3003C135.137 78.5045 135.077 83.2124 130.104 84.3826C126.132 85.0433 123.172 82.8408 122.899 78.7633C122.619 74.5289 123.034 71.1507 127.728 69.953Z" fill="white"/>
<path d="M127.787 72.0397C130.458 71.7478 132.467 72.9537 132.743 75.729C133.018 78.5538 132.99 81.2133 129.962 82.2899C124.907 83.3361 124.122 77.9205 125.282 74.245C125.664 73.0666 126.691 72.4747 127.787 72.0397Z" fill="#004B94"/>
<path d="M179.07 69.8595L187.101 69.8815V84.5258H185.147V78.2182L183.029 78.1907C182.366 78.1907 180.926 78.0447 180.499 78.466L177.027 84.5533L174.668 84.5148C175.909 82.4352 177.125 80.34 178.316 78.2292C176.84 77.4776 175.72 76.6103 175.428 74.8923C174.965 72.1364 176.452 70.3303 179.07 69.8595Z" fill="white"/>
<path d="M178.726 71.8964C180.709 71.811 183.131 71.8744 185.149 71.8799V76.2657H183.944C182.567 76.2217 180.397 76.4667 179.145 76.1749C176.741 75.6187 176.719 73.1023 178.726 71.8964Z" fill="#004B94"/>
<path d="M113.512 69.8592C117.207 69.8042 121.155 69.5591 120.847 74.6994C120.516 80.2526 112.587 77.2846 111.081 78.43L111.089 84.5255H109.129V69.8647L113.512 69.8592Z" fill="white"/>
<path d="M111.094 71.8747C113.412 71.8527 121.746 70.9414 118.252 75.7292C117.123 76.5551 112.812 76.2633 111.094 76.2605V71.8747Z" fill="#004B94"/>
<path d="M171.626 69.8649H173.327C173.327 71.4783 173.468 84.0384 173.206 84.4761L172.631 84.5615C172.204 84.5422 171.772 84.5615 171.447 84.344C171.171 82.1001 171.425 76.5277 171.356 73.8681C169.228 77.3509 166.717 81.0732 164.473 84.534H162.76C162.76 80.2004 162.554 74.2122 162.802 70.0852C163.063 69.8098 163.151 69.8842 163.611 69.8456C163.953 69.8207 164.297 69.8561 164.627 69.9503C164.902 70.2889 164.787 79.1652 164.82 80.3931C167.068 76.8672 169.337 73.3578 171.626 69.8649Z" fill="white"/>
<path d="M144.151 69.8566H148.556L148.572 71.883L145.998 71.8555C143.87 71.8417 142.023 71.8059 140.393 73.4303C139.37 74.4537 138.792 75.8383 138.782 77.2848C138.796 78.6745 139.357 80.0028 140.343 80.9823C142.38 82.9866 145.629 82.5599 148.344 82.5213L148.462 82.5874C148.655 82.9564 148.581 84.0549 148.575 84.5312C145.357 84.5505 141.794 84.991 139.283 82.7802C138.556 82.1676 137.961 81.4146 137.532 80.5664C137.104 79.7181 136.851 78.792 136.789 77.8437C136.705 76.8741 136.815 75.8977 137.112 74.9709C137.409 74.0442 137.887 73.1855 138.518 72.4446C140.059 70.6303 141.871 70.0273 144.151 69.8566Z" fill="white"/>
<path d="M157.171 69.8595C158.335 69.8595 159.541 69.8595 160.711 69.8787V71.8776C157.658 71.839 154.222 71.2911 152.146 73.9893C151.711 74.5537 151.393 75.1991 151.21 75.8878C151.027 76.5765 150.983 77.2948 151.081 78.0007C151.212 78.943 151.601 79.8309 152.204 80.5667C154.814 83.8017 159.621 81.8882 160.72 82.7252V84.5368C157.308 84.5533 153.949 85.0241 151.29 82.5765C150.585 81.9256 150.018 81.1405 149.62 80.2673C149.223 79.394 149.005 78.4503 148.977 77.4913C148.943 76.5223 149.103 75.5562 149.446 74.6495C149.79 73.7428 150.311 72.9137 150.979 72.2107C152.807 70.2559 154.665 69.9338 157.171 69.8595Z" fill="white"/>
<path d="M0 29.1862H17.4746C17.5444 29.9844 17.761 30.7628 18.1133 31.4824C19.5725 34.6513 16.9101 33.5831 15.6354 34.1255C14.9912 34.9321 15.5143 36.0169 15.3959 37.0246C15.3264 37.4773 15.2177 37.9232 15.071 38.3571C15.6877 40.4165 17.3314 42.9687 17.3782 45.565C17.3231 47.2885 16.5522 49.0258 16.1998 50.7355C15.3518 54.6946 15.495 58.6647 15.6492 62.6872C15.7098 64.3391 16.2329 66.247 15.9245 67.9182C15.6024 69.6968 15.3271 71.7342 15.7455 73.5651C16.7835 76.4449 16.2026 77.7802 16.0209 80.6298C16.2925 82.6176 16.4852 84.6146 16.599 86.6207C11.2771 86.7639 5.37149 86.6345 0.00275274 86.6207L0 29.1862Z" fill="#004B94"/>
<path d="M151.862 30.2321C155.189 29.9157 158.534 30.5932 161.476 32.1784C164.417 33.7638 166.823 36.1867 168.388 39.1394C169.952 42.0919 170.606 45.4423 170.266 48.7663C169.926 52.0906 168.607 55.2394 166.477 57.8142C164.347 60.3887 161.501 62.2742 158.3 63.2312C155.098 64.1881 151.684 64.1737 148.49 63.1902C145.297 62.2066 142.467 60.2979 140.358 57.7058C138.25 55.1135 136.958 51.9536 136.646 48.6267C136.226 44.1699 137.592 39.7283 140.445 36.279C143.299 32.8298 147.406 30.6547 151.862 30.2321ZM152.983 35.2185C149.828 35.5351 147.469 36.664 145.435 39.1804C144.404 40.4674 143.637 41.9457 143.18 43.53C142.722 45.1142 142.582 46.7735 142.769 48.4118C143.358 54.1935 147.703 58.8985 153.782 58.8737C168.126 57.8657 167.404 35.0836 152.983 35.2185Z" fill="#004B94"/>
<path d="M23.2618 29.1862H38.0245C37.8868 31.4879 37.9611 34.2824 37.9611 36.6199V49.4746L37.9281 86.6428H33.5588H26.7694C26.874 84.4567 27.2347 82.3257 27.287 80.0626C27.3723 78.0005 27.0722 75.8722 26.9951 73.8266C26.7776 68.1578 26.4968 62.555 25.1863 57.0321C24.6742 54.8653 24.8256 51.9689 24.2199 49.7444C23.7491 48.0071 23.1324 46.2368 22.5845 44.5133C22.8158 43.189 23.6004 41.6802 24.0933 40.3835C24.6439 38.9353 25.1175 37.5394 25.6103 36.0692C22.9452 34.7367 21.0565 34.6348 22.6809 31.0281C22.9065 30.4247 23.1005 29.8099 23.2618 29.1862Z" fill="#58C5EF"/>
<path d="M207.982 29.9516L221.074 29.9296L221.055 35.3203C218.158 35.2267 215.26 35.1918 212.36 35.2157C210.873 35.2157 208.062 35.1606 206.675 35.3864C205.7 35.5354 204.765 35.875 203.921 36.3858C201.144 38.068 200.24 40.5955 199.516 43.5276C201.81 43.635 204.665 43.5607 206.989 43.5607H221.145V49.0671H199.519C199.935 51.1375 200.274 52.225 201.386 54.0476C201.732 54.5479 202.123 55.016 202.553 55.4462C203.739 56.6222 205.225 57.4515 206.848 57.8443C208.5 58.2407 211.592 58.1196 213.42 58.1196H221.024V63.5902L212.779 63.6039C207.22 63.6039 203.737 63.8628 199.2 59.8486C195.733 56.6962 194.294 52.4425 194.004 47.9052C193.413 38.6572 197.931 30.3838 207.982 29.9516Z" fill="#004B94"/>
<path d="M43.5574 29.9432L48.5655 29.9267C48.6811 38.8581 48.6022 47.7895 48.3287 56.7209C53.2459 47.9795 59.0304 38.6984 64.1927 30.0148H69.9276C69.9276 40.912 70.1478 52.558 69.9083 63.3891L69.6605 63.5653L64.8369 63.6011C64.881 54.7688 64.7103 45.7218 65.0654 36.9116C63.4521 39.8768 61.211 43.4174 59.4351 46.3551L49.1161 63.6011H43.5547C43.7309 52.5608 43.5877 40.9918 43.5574 29.9432Z" fill="#004B94"/>
<path d="M76.1684 29.938H81.2095V43.1946C86.2782 43.079 91.6386 43.1616 96.7238 43.1946V30.0949H101.781V63.5821L99.3504 63.6014H96.7018L96.7238 48.3404C91.7901 48.1972 86.1873 48.3404 81.1958 48.3184V63.5491H76.1602L76.1684 29.938Z" fill="#004B94"/>
<path d="M108.09 29.9352H113.093C113.12 34.3403 113.107 38.7537 113.054 43.1753L128.629 43.1561V30.0866C130.22 30.0288 132.114 30.0866 133.728 30.0866V63.5711L131.288 63.5848H128.615C128.709 58.574 128.634 53.3264 128.615 48.3018H113.057C113.159 53.3044 113.101 58.4886 113.084 63.5132H108.062L108.09 29.9352Z" fill="#004B94"/>
<path d="M227.156 29.9405L232.112 29.9267V44.7279C233.334 43.522 234.722 41.8206 235.953 40.5321C239.257 37.0685 242.544 33.3545 245.917 29.9625C248.169 29.9295 250.423 29.9194 252.678 29.9322C247.376 35.0972 242.087 40.4742 236.85 45.7053C239.678 48.9816 244.099 53.3097 247.155 56.4813C248.584 57.9488 252.805 62.1226 253.824 63.5268H246.707C241.72 58.1635 236.856 52.6902 232.115 47.1067C232.018 52.492 232.115 58.1195 232.115 63.524H227.159L227.156 29.9405Z" fill="#004B94"/>
<path d="M168.434 29.9352H193.934L193.959 35.2241C190.685 35.2984 187.12 35.2241 183.816 35.2241C183.934 41.2454 183.841 47.5474 183.843 53.5907V63.56L178.541 63.6013L178.587 35.2434H168.434V29.9352Z" fill="#004B94"/>
</svg>
