<svg width="245" height="132" viewBox="0 0 245 132" fill="none" xmlns="http://www.w3.org/2000/svg">
<g clip-path="url(#clip0_3249_3360)">
<path d="M64.3841 80.8113H64.6935C64.9103 80.8093 65.1177 80.7223 65.271 80.5691C65.4243 80.4159 65.5113 80.2087 65.5134 79.992V37.9974C65.5152 37.7755 65.4386 37.56 65.2971 37.3889C65.1556 37.2179 64.9583 37.1022 64.7399 37.0621C64.521 37.0157 64.2927 37.0485 64.0958 37.1547C63.8989 37.2608 63.7461 37.4335 63.6648 37.6419L49.8895 71.5977L49.8199 71.4354L36.1143 37.6419C36.033 37.4335 35.8802 37.2608 35.6833 37.1547C35.4863 37.0485 35.2581 37.0157 35.0392 37.0621C34.8201 37.1007 34.6218 37.216 34.4801 37.3874C34.3384 37.5588 34.2624 37.7751 34.2657 37.9974V79.992C34.2677 80.2087 34.3548 80.4159 34.5081 80.5691C34.6614 80.7223 34.8688 80.8093 35.0856 80.8113H35.395C35.6124 80.8113 35.821 80.725 35.9747 80.5713C36.1285 80.4177 36.2148 80.2093 36.2148 79.992V43.0834L36.354 43.4235L48.8376 74.1871C48.9196 74.3986 49.0642 74.5801 49.2522 74.7072C49.4402 74.8343 49.6626 74.9009 49.8895 74.8982C50.1165 74.9009 50.3388 74.8343 50.5268 74.7072C50.7148 74.5801 50.8595 74.3986 50.9414 74.1871L63.5642 43.0834V79.992C63.5642 80.2093 63.6506 80.4177 63.8044 80.5713C63.9581 80.725 64.1667 80.8113 64.3841 80.8113Z" fill="black"/>
<path d="M79.8376 80.8422H90.7433C92.4576 80.8402 94.1011 80.1587 95.3133 78.9473C96.5255 77.7359 97.2074 76.0935 97.2094 74.3803V43.8718C97.2074 42.0644 96.488 40.3315 95.2091 39.0534C93.9302 37.7754 92.1962 37.0564 90.3875 37.0544H78.8553C77.3099 37.0564 75.8286 37.6714 74.7365 38.7641C73.6445 39.8569 73.0312 41.3381 73.0312 42.8825V44.3897C73.0302 44.498 73.0506 44.6053 73.0913 44.7056C73.1321 44.8059 73.1923 44.8972 73.2686 44.9741C73.3448 45.051 73.4355 45.112 73.5355 45.1537C73.6355 45.1953 73.7427 45.2168 73.851 45.2168H74.1604C74.3786 45.2147 74.5871 45.1267 74.7406 44.9718C74.8942 44.8169 74.9803 44.6077 74.9803 44.3897V42.8902C74.9803 41.8652 75.3877 40.8822 76.113 40.1574C76.8382 39.4326 77.8219 39.0254 78.8476 39.0254H90.3798C91.6715 39.0274 92.9097 39.5411 93.8231 40.4539C94.7365 41.3667 95.2505 42.6042 95.2526 43.895V51.47L95.1288 51.3618C93.9507 50.2703 92.404 49.663 90.7975 49.6613H79.0641C77.462 49.6613 75.9256 50.2973 74.7927 51.4294C73.6599 52.5615 73.0234 54.097 73.0234 55.698V74.0634C73.0316 75.8641 73.7531 77.5882 75.0302 78.8586C76.3072 80.129 78.0357 80.8422 79.8376 80.8422ZM74.9803 55.6748C74.9803 55.1379 75.0861 54.6062 75.2917 54.1101C75.4974 53.614 75.7987 53.1632 76.1787 52.7835C76.5586 52.4038 77.0097 52.1026 77.5061 51.8972C78.0025 51.6917 78.5346 51.5859 79.0719 51.5859H90.8052C91.9861 51.5879 93.1181 52.0577 93.9532 52.8922C94.7882 53.7267 95.2583 54.858 95.2603 56.0381V74.3726C95.2583 75.5692 94.7817 76.7161 93.9351 77.5623C93.0884 78.4084 91.9407 78.8846 90.7433 78.8866H79.8376C78.5493 78.8866 77.3139 78.3752 76.403 77.4649C75.492 76.5546 74.9803 75.3199 74.9803 74.0325V55.6748Z" fill="black"/>
<path d="M128.496 79.5282L120.258 62.1599H120.359C122.332 61.9031 124.145 60.9384 125.46 59.4454C126.775 57.9523 127.502 56.0327 127.506 54.0439V45.4023C127.504 43.1889 126.623 41.0668 125.057 39.5017C123.491 37.9366 121.367 37.0564 119.152 37.0544H105.447C105.176 37.0544 104.916 37.1619 104.725 37.3532C104.533 37.5446 104.426 37.8041 104.426 38.0747V79.9765C104.428 80.1945 104.516 80.4029 104.671 80.5563C104.826 80.7098 105.035 80.7958 105.253 80.7958H105.555C105.772 80.7958 105.981 80.7095 106.135 80.5559C106.289 80.4022 106.375 80.1938 106.375 79.9765V62.1986H118.139V62.2449L126.725 80.3398C126.837 80.5719 127.038 80.7498 127.281 80.8345C127.405 80.8846 127.539 80.9071 127.672 80.9004C127.806 80.8937 127.936 80.8581 128.055 80.7958C128.278 80.6828 128.449 80.4874 128.531 80.251C128.614 80.0145 128.601 79.7554 128.496 79.5282ZM106.367 60.2739V39.0022H119.145C120.843 39.0022 122.472 39.6765 123.673 40.8768C124.874 42.077 125.549 43.7049 125.549 45.4023V54.0439C125.547 55.6969 124.888 57.2815 123.718 58.4497C122.548 59.6178 120.961 60.2739 119.307 60.2739H106.367Z" fill="black"/>
<path d="M142.239 80.8113H142.495C142.72 80.8113 142.937 80.7217 143.096 80.5623C143.256 80.4028 143.345 80.1866 143.345 79.9611V38.9945H154.321C154.432 38.9955 154.543 38.9745 154.646 38.9326C154.749 38.8907 154.843 38.8288 154.922 38.7505C155.001 38.6722 155.064 38.5789 155.107 38.4762C155.15 38.3735 155.172 38.2633 155.172 38.152V37.8892C155.172 37.7779 155.15 37.6677 155.107 37.565C155.064 37.4623 155.001 37.369 154.922 37.2907C154.843 37.2124 154.749 37.1504 154.646 37.1086C154.543 37.0667 154.432 37.0456 154.321 37.0467H130.413C130.302 37.0456 130.191 37.0667 130.088 37.1086C129.985 37.1504 129.891 37.2124 129.812 37.2907C129.733 37.369 129.67 37.4623 129.627 37.565C129.585 37.6677 129.562 37.7779 129.563 37.8892V38.152C129.562 38.2633 129.585 38.3735 129.627 38.4762C129.67 38.5789 129.733 38.6722 129.812 38.7505C129.891 38.8288 129.985 38.8907 130.088 38.9326C130.191 38.9745 130.302 38.9955 130.413 38.9945H141.427V79.9611C141.425 80.1806 141.509 80.3923 141.66 80.5511C141.812 80.7099 142.02 80.8033 142.239 80.8113Z" fill="black"/>
<path d="M161.906 37.0621H161.411C161.218 37.0621 161.033 37.1387 160.897 37.2749C160.76 37.4112 160.684 37.596 160.684 37.7887V79.7833C160.684 80.0526 160.79 80.3109 160.98 80.502C161.17 80.6932 161.427 80.8016 161.697 80.8036H182.248C182.437 80.7925 182.615 80.7124 182.749 80.5785C182.883 80.4446 182.964 80.2661 182.975 80.077V79.5823C182.975 79.3896 182.898 79.2048 182.762 79.0686C182.625 78.9323 182.44 78.8557 182.248 78.8557H162.633V37.7887C162.633 37.596 162.556 37.4112 162.42 37.2749C162.283 37.1387 162.098 37.0621 161.906 37.0621Z" fill="black"/>
<path d="M209.073 44.7144C209.071 42.6861 208.265 40.7413 206.831 39.3056C205.398 37.87 203.453 37.0605 201.424 37.0544H194.795C192.794 37.0564 190.876 37.8522 189.462 39.2667C188.048 40.6813 187.254 42.599 187.254 44.5984V73.3291C187.254 75.3306 188.049 77.2503 189.464 78.6663C190.88 80.0823 192.8 80.8788 194.803 80.8809H201.393C203.422 80.8768 205.366 80.069 206.8 78.6346C208.234 77.2002 209.04 75.2561 209.042 73.2286V69.2247C209.042 69.0087 208.957 68.8015 208.805 68.6481C208.653 68.4947 208.446 68.4074 208.23 68.4054H207.944C207.727 68.4074 207.52 68.4944 207.366 68.6476C207.213 68.8008 207.126 69.008 207.124 69.2247V73.2209C207.122 74.7339 206.52 76.1844 205.45 77.255C204.381 78.3256 202.93 78.9289 201.416 78.933H194.795C193.311 78.931 191.889 78.3405 190.84 77.2912C189.792 76.2419 189.203 74.8197 189.203 73.3368V62.8788H208.029C208.298 62.8788 208.555 62.7721 208.745 62.5822C208.935 62.3923 209.042 62.1348 209.042 61.8662L209.073 44.7144ZM207.124 60.9464H189.234V44.5984C189.234 43.1156 189.823 41.6933 190.871 40.644C191.92 39.5948 193.342 39.0043 194.826 39.0022H201.424C202.937 39.0063 204.387 39.6099 205.455 40.6807C206.524 41.7515 207.124 43.2021 207.124 44.7144V60.9464Z" fill="black"/>
<path d="M238.718 44.7144C238.714 42.6841 237.905 40.7381 236.468 39.3025C235.032 37.8668 233.084 37.0585 231.053 37.0544H224.455C222.455 37.0585 220.538 37.8548 219.125 39.269C217.711 40.6831 216.916 42.5996 216.914 44.5984V73.3368C216.916 75.3357 217.711 77.2522 219.125 78.6663C220.538 80.0804 222.455 80.8768 224.455 80.8809H231.053C233.084 80.8768 235.032 80.0684 236.468 78.6328C237.905 77.1972 238.714 75.2512 238.718 73.2209V62.1213C238.718 61.8507 238.61 61.5912 238.419 61.3998C238.227 61.2085 237.968 61.101 237.697 61.101H228.524C228.308 61.103 228.101 61.1902 227.949 61.3437C227.797 61.4971 227.711 61.7043 227.712 61.9203V62.2372C227.711 62.4532 227.797 62.6604 227.949 62.8139C228.101 62.9673 228.308 63.0545 228.524 63.0565H236.769V73.2209C236.767 74.7352 236.164 76.1869 235.092 77.2577C234.021 78.3285 232.568 78.931 231.053 78.933H224.463C222.977 78.931 221.553 78.3396 220.503 77.2889C219.453 76.2382 218.863 74.814 218.863 73.3291V44.5984C218.865 43.1162 219.455 41.6951 220.503 40.6463C221.551 39.5975 222.972 39.0063 224.455 39.0022H231.053C232.568 39.0043 234.021 39.6067 235.092 40.6775C236.164 41.7483 236.767 43.2 236.769 44.7144V48.6255C236.768 48.835 236.848 49.0367 236.992 49.1891C237.136 49.3414 237.333 49.433 237.542 49.4448H237.859C238.076 49.4428 238.283 49.3558 238.437 49.2026C238.59 49.0494 238.677 48.8422 238.679 48.6255L238.718 44.7144Z" fill="black"/>
<path d="M241.689 31.8602C241.555 31.8611 241.421 31.8846 241.295 31.9297V33.3056H241.619C242.107 33.3056 242.555 33.1201 242.555 32.5326C242.555 31.9452 242.083 31.837 241.689 31.837M242.64 35.2921L241.426 33.5761H241.295V35.2921H240.877V31.6669C241.15 31.547 241.445 31.4864 241.743 31.4891C241.895 31.4684 242.049 31.48 242.197 31.523C242.344 31.5659 242.48 31.6394 242.597 31.7386C242.714 31.8378 242.808 31.9604 242.874 32.0986C242.94 32.2367 242.977 32.3873 242.981 32.5404C242.981 33.1664 242.509 33.5143 241.875 33.5529L243.135 35.2921H242.64ZM241.867 30.7239C241.137 30.7259 240.438 31.0165 239.922 31.5321C239.406 32.0477 239.115 32.7465 239.113 33.4756C239.113 34.2054 239.403 34.9053 239.92 35.4214C240.436 35.9374 241.137 36.2273 241.867 36.2273C242.229 36.2284 242.588 36.1579 242.923 36.0201C243.258 35.8823 243.562 35.6797 243.819 35.4241C244.075 35.1685 244.279 34.8648 244.418 34.5305C244.557 34.1961 244.628 33.8376 244.628 33.4756C244.626 32.7451 244.334 32.0452 243.817 31.5294C243.299 31.0136 242.598 30.7239 241.867 30.7239ZM241.867 36.6138C241.455 36.6138 241.047 36.5326 240.666 36.3748C240.286 36.217 239.94 35.9857 239.649 35.6942C239.358 35.4027 239.128 35.0567 238.971 34.676C238.814 34.2953 238.733 33.8874 238.734 33.4756C238.733 33.0639 238.814 32.656 238.971 32.2753C239.128 31.8946 239.358 31.5486 239.649 31.2571C239.94 30.9656 240.286 30.7343 240.666 30.5765C241.047 30.4187 241.455 30.3374 241.867 30.3374C242.7 30.3374 243.498 30.6681 244.087 31.2566C244.676 31.8451 245.007 32.6433 245.007 33.4756C245.007 34.3079 244.676 35.1061 244.087 35.6947C243.498 36.2832 242.7 36.6138 241.867 36.6138Z" fill="black"/>
<path d="M27.7295 67.0759V72.5484C27.7295 75.6403 25.8964 78.276 22.6711 79.7369L22.5938 79.7755C22.6866 79.3659 22.7717 78.9485 22.849 78.5388C22.9264 78.1292 23.0114 77.7195 23.0733 77.3021L23.1584 77.2402C23.9513 76.7371 24.6068 76.045 25.0658 75.226C25.5248 74.4071 25.773 73.487 25.7881 72.5484V67.0759C25.7923 65.8835 25.4136 64.7213 24.7077 63.7599C24.0019 62.7985 23.0061 62.0887 21.8667 61.7348L21.5109 61.6189L12.2836 58.6971L7.5191 57.1512C5.81512 56.6231 4.32579 55.5623 3.27036 54.1249C2.21492 52.6875 1.64915 50.9494 1.65632 49.1666V45.1086C1.65875 44.7252 1.69238 44.3426 1.75687 43.9646C1.75687 43.926 1.75687 43.9028 1.75687 43.8641C1.9951 42.8472 2.44094 41.8905 3.06649 41.0539C3.69204 40.2172 4.48379 39.5187 5.3921 39.0022C7.45888 37.7446 9.83286 37.0812 12.2527 37.0853H16.731C21.7275 37.0853 27.1262 40.2467 27.1262 45.3714V48.5791C27.1262 48.7985 27.039 49.0088 26.8838 49.1639C26.7286 49.319 26.5181 49.4062 26.2986 49.4062H25.997C25.7775 49.4062 25.567 49.319 25.4118 49.1639C25.2566 49.0088 25.1694 48.7985 25.1694 48.5791V45.3714C25.1694 41.5762 20.8071 39.0254 16.731 39.0254H12.2527C10.1265 39.0178 8.04299 39.6215 6.25065 40.7646C5.47652 41.2063 4.82623 41.8359 4.35985 42.5951C3.89347 43.3543 3.62603 44.2188 3.58222 45.1086V49.1666C3.57905 50.5357 4.01425 51.8699 4.82419 52.9742C5.63412 54.0784 6.77631 54.8947 8.08374 55.3038L10.0406 55.9222L20.2425 59.1454L22.4391 59.8411C23.9802 60.3214 25.3262 61.2837 26.2787 62.5863C27.2311 63.8888 27.7397 65.4627 27.7295 67.0759Z" fill="black"/>
<path d="M18.0929 78.8944C18.0929 79.5359 18.0156 80.1775 17.946 80.8113H11.1627C6.32862 80.8113 1.33984 77.7195 1.33984 72.5716V69.2402C1.33981 69.0214 1.42567 68.8114 1.579 68.6553C1.73232 68.4992 1.94085 68.4094 2.15971 68.4054H2.46134C2.68154 68.4074 2.89204 68.4963 3.04703 68.6526C3.20201 68.809 3.28895 69.0201 3.28895 69.2402V72.5716C3.28895 76.5137 7.28771 78.8635 11.1627 78.8635H18.1238V78.9098L18.0929 78.8944Z" fill="black"/>
<path d="M5.43761 39.0332C4.5293 39.5497 3.73757 40.2482 3.11202 41.0848C2.48647 41.9214 2.04061 42.8782 1.80238 43.895C1.80238 43.9337 1.80238 43.9569 1.80238 43.9955L1.74823 43.8873C-0.347837 38.4766 -0.881518 32.123 2.04215 26.0012C7.06188 15.489 20.2802 5.6029 21.1078 5C20.3344 5.67247 8.32261 15.8214 4.47853 26.2562C2.87747 30.5925 3.55811 34.836 5.3912 38.9017V38.9713L5.43761 39.0332Z" fill="url(#paint0_linear_3249_3360)"/>
<path d="M20.2506 59.0913L20.2971 59.1763L10.0952 55.9531L10.0178 55.8603C9.55375 55.3425 9.08194 54.8323 8.56372 54.3144C6.67611 52.4338 5.04781 50.3101 3.72188 47.9994L3.64453 47.8448V45.1395C3.68835 44.2497 3.95581 43.3853 4.42219 42.626C4.88857 41.8668 5.53883 41.2372 6.31296 40.7955L6.35163 40.865C9.27529 46.2139 13.9625 51.2381 17.8065 55.7058C18.7121 56.744 19.5224 57.8615 20.2274 59.0449L20.2506 59.0913Z" fill="url(#paint1_linear_3249_3360)"/>
<path d="M23.1263 77.1475C23.1263 77.1475 23.1263 77.1862 23.1263 77.2016V77.3021C23.0644 77.7195 22.9871 78.1292 22.902 78.5388C22.8169 78.9485 22.7396 79.3659 22.6467 79.7755C22.6467 79.7755 22.6467 79.8142 22.6467 79.8374C22.1173 82.0976 21.4403 84.3207 20.6203 86.4925C17.132 95.768 11.1145 104.039 5.03516 112C7.95882 108.012 16.5597 95.1573 17.9751 80.9968V80.8809C17.9751 80.8809 17.9751 80.8345 17.9751 80.8113C18.0447 80.1775 18.0911 79.5359 18.122 78.8944V78.848C18.1254 78.8249 18.1254 78.8015 18.122 78.7785C18.5776 71.6743 16.573 64.6299 12.4449 58.8285L12.3598 58.728L21.5407 61.6189L21.5871 61.7116L21.6335 61.7889C23.7064 66.6431 23.9616 71.9223 23.1263 77.1475Z" fill="url(#paint2_linear_3249_3360)"/>
</g>
<defs>
<linearGradient id="paint0_linear_3249_3360" x1="0.000220589" y1="24.4939" x2="21.0924" y2="24.4939" gradientUnits="userSpaceOnUse">
<stop stop-color="#F3CC71"/>
<stop offset="0.4" stop-color="#F3CC71"/>
<stop offset="1" stop-color="#B08039"/>
</linearGradient>
<linearGradient id="paint1_linear_3249_3360" x1="3.6368" y1="49.9859" x2="20.2971" y2="49.9859" gradientUnits="userSpaceOnUse">
<stop stop-color="#F3CC71"/>
<stop offset="0.4" stop-color="#F3CC71"/>
<stop offset="1" stop-color="#B08039"/>
</linearGradient>
<linearGradient id="paint2_linear_3249_3360" x1="4.99648" y1="85.3485" x2="23.5749" y2="85.3485" gradientUnits="userSpaceOnUse">
<stop stop-color="#F3CC71"/>
<stop offset="0.4" stop-color="#F3CC71"/>
<stop offset="1" stop-color="#B08039"/>
</linearGradient>
<clipPath id="clip0_3249_3360">
<rect width="245" height="107" fill="white" transform="translate(0 5)"/>
</clipPath>
</defs>
</svg>
