<svg width="239" height="132" viewBox="0 0 239 132" fill="none" xmlns="http://www.w3.org/2000/svg">
<path d="M38.9596 68.5809C46.1455 68.4184 54.0513 68.5809 61.3018 68.5809H238.666V86.4232C231.408 86.596 223.466 86.4361 216.167 86.4361H38.957L38.9596 68.5809Z" fill="#004B94"/>
<path d="M119.702 70.702C121.082 70.4738 122.498 70.7416 123.699 71.4581C124.793 72.1238 125.887 73.4887 126.073 74.7762C126.645 78.7162 126.589 83.1284 121.929 84.225C118.206 84.8443 115.432 82.7801 115.176 78.9588C114.913 74.9904 115.303 71.8244 119.702 70.702Z" fill="white"/>
<path d="M119.76 72.6576C122.263 72.3841 124.147 73.5143 124.405 76.1151C124.663 78.7624 124.637 81.2549 121.799 82.2638C117.061 83.2443 116.326 78.169 117.412 74.7244C117.771 73.62 118.733 73.0653 119.76 72.6576Z" fill="#004B94"/>
<path d="M167.821 70.6144L175.348 70.635V84.3592H173.516V78.4479L171.531 78.4221C170.91 78.4221 169.56 78.2854 169.16 78.6802L165.907 84.385L163.695 84.3489C164.858 82.4 165.998 80.4364 167.114 78.4583C165.731 77.7539 164.681 76.9411 164.407 75.331C163.974 72.7482 165.367 71.0556 167.821 70.6144Z" fill="white"/>
<path d="M167.498 72.5233C169.356 72.4433 171.627 72.5027 173.518 72.5078V76.6181H172.388C171.098 76.5768 169.065 76.8065 167.891 76.533C165.638 76.0118 165.617 73.6534 167.498 72.5233Z" fill="#004B94"/>
<path d="M106.381 70.6142C109.844 70.5625 113.544 70.3329 113.255 75.1502C112.945 80.3545 105.514 77.573 104.103 78.6464L104.111 84.359H102.273V70.6193L106.381 70.6142Z" fill="white"/>
<path d="M104.113 72.503C106.286 72.4824 114.096 71.6283 110.822 76.1153C109.764 76.8894 105.723 76.6159 104.113 76.6133V72.503Z" fill="#004B94"/>
<path d="M160.845 70.6195H162.439C162.439 72.1315 162.571 83.9025 162.326 84.3127L161.787 84.3927C161.387 84.3747 160.982 84.3927 160.677 84.1889C160.419 82.086 160.657 76.8636 160.592 74.3711C158.597 77.6351 156.244 81.1236 154.141 84.3669H152.537C152.537 80.3056 152.343 74.6936 152.575 70.8259C152.82 70.5679 152.903 70.6375 153.334 70.6014C153.654 70.578 153.977 70.6112 154.286 70.6995C154.544 71.0168 154.436 79.3355 154.467 80.4863C156.574 77.1818 158.7 73.8929 160.845 70.6195Z" fill="white"/>
<path d="M135.093 70.6117H139.221L139.237 72.5108L136.824 72.485C134.83 72.4721 133.098 72.4385 131.571 73.9609C130.613 74.92 130.07 76.2175 130.061 77.5732C130.075 78.8756 130.6 80.1204 131.524 81.0384C133.434 82.9168 136.478 82.5169 139.022 82.4808L139.133 82.5427C139.314 82.8884 139.244 83.9179 139.239 84.3643C136.223 84.3824 132.884 84.7952 130.531 82.7233C129.85 82.1492 129.292 81.4436 128.89 80.6486C128.488 79.8536 128.251 78.9857 128.193 78.097C128.115 77.1883 128.218 76.2732 128.496 75.4047C128.775 74.5362 129.222 73.7314 129.814 73.0371C131.259 71.3368 132.956 70.7717 135.093 70.6117Z" fill="white"/>
<path d="M147.296 70.6144C148.388 70.6144 149.518 70.6144 150.614 70.6324V72.5057C147.753 72.4696 144.533 71.9561 142.587 74.4847C142.18 75.0136 141.881 75.6185 141.71 76.264C141.538 76.9094 141.497 77.5826 141.589 78.2441C141.712 79.1273 142.076 79.9593 142.642 80.6489C145.088 83.6806 149.593 81.8874 150.622 82.6718V84.3696C147.425 84.385 144.277 84.8263 141.785 82.5324C141.124 81.9225 140.593 81.1867 140.22 80.3683C139.848 79.5499 139.643 78.6654 139.617 77.7668C139.586 76.8586 139.735 75.9532 140.057 75.1035C140.379 74.2538 140.867 73.4768 141.493 72.8179C143.207 70.9859 144.948 70.684 147.296 70.6144Z" fill="white"/>
<path d="M0 32.4965H16.3767C16.4422 33.2445 16.6451 33.974 16.9753 34.6484C18.3428 37.6182 15.8477 36.6171 14.6531 37.1254C14.0493 37.8814 14.5396 38.898 14.4286 39.8424C14.3635 40.2667 14.2616 40.6845 14.1242 41.0912C14.7021 43.0212 16.2425 45.4131 16.2864 47.8463C16.2348 49.4615 15.5123 51.0896 15.182 52.6919C14.3873 56.4023 14.5215 60.123 14.666 63.8927C14.7228 65.4408 15.213 67.2289 14.924 68.7951C14.6221 70.4619 14.3641 72.3713 14.7563 74.0871C15.7291 76.7861 15.1846 78.0375 15.0143 80.708C15.2689 82.5709 15.4495 84.4424 15.5562 86.3226C10.5686 86.4567 5.03402 86.3355 0.00257979 86.3226L0 32.4965Z" fill="#004B94"/>
<path d="M142.324 33.4769C145.441 33.1803 148.577 33.8153 151.333 35.3011C154.09 36.7868 156.344 39.0566 157.81 41.8235C159.276 44.5906 159.888 47.7307 159.57 50.846C159.251 53.9613 158.016 56.9126 156.02 59.3255C154.024 61.7384 151.356 63.5048 148.356 64.4017C145.355 65.2985 142.156 65.2853 139.164 64.3636C136.171 63.4418 133.518 61.6533 131.542 59.2239C129.566 56.7944 128.355 53.8331 128.062 50.7151C127.668 46.5384 128.95 42.3763 131.624 39.1438C134.299 35.9114 138.147 33.8729 142.324 33.4769ZM143.373 38.1497C140.417 38.4464 138.205 39.5043 136.298 41.8626C135.332 43.0687 134.614 44.454 134.185 45.9388C133.756 47.4235 133.626 48.9785 133.8 50.514C134.352 55.9324 138.424 60.3419 144.122 60.3186C157.564 59.3741 156.888 38.0237 143.373 38.1497Z" fill="#004B94"/>
<path d="M21.8007 32.4965H35.6359C35.5069 34.6536 35.5765 37.2725 35.5765 39.4631V51.5102L35.5456 86.3432H31.4508H25.0879C25.186 84.2945 25.524 82.2974 25.573 80.1765C25.653 78.2439 25.3717 76.2494 25.2995 74.3323C25.0957 69.0196 24.8325 63.7688 23.6043 58.5929C23.1244 56.5623 23.2663 53.8479 22.6986 51.763C22.2574 50.1349 21.6794 48.4758 21.166 46.8606C21.3827 45.6195 22.1181 44.2056 22.5799 42.9903C23.096 41.6331 23.5398 40.3249 24.0016 38.9471C21.504 37.6982 19.734 37.6028 21.2563 34.2227C21.4678 33.6572 21.6495 33.081 21.8007 32.4965Z" fill="#58C5EF"/>
<path d="M194.917 33.2138L207.186 33.1931L207.168 38.2452C204.454 38.1575 201.738 38.1248 199.02 38.1472C197.627 38.1472 194.992 38.0956 193.692 38.3072C192.779 38.4468 191.902 38.7651 191.112 39.2438C188.508 40.8203 187.662 43.1889 186.983 45.9369C189.133 46.0375 191.808 45.9678 193.986 45.9678H207.253V51.1283H186.986C187.375 53.0686 187.693 54.0878 188.735 55.7959C189.06 56.2648 189.426 56.7035 189.829 57.1067C190.941 58.2088 192.333 58.9859 193.854 59.354C195.403 59.7256 198.3 59.6121 200.013 59.6121H207.14V64.739L199.412 64.7519C194.203 64.7519 190.939 64.9944 186.687 61.2325C183.438 58.2781 182.089 54.2916 181.818 50.0394C181.263 41.3725 185.497 33.6189 194.917 33.2138Z" fill="#004B94"/>
<path d="M40.819 33.206L45.5124 33.1905C45.6208 41.5607 45.5468 49.931 45.2905 58.3012C49.8988 50.109 55.3199 41.4111 60.1578 33.2731H65.5324C65.5324 43.4856 65.7388 54.3999 65.5143 64.5505L65.2821 64.7157L60.7615 64.7492C60.8028 56.4719 60.6429 47.9932 60.9757 39.7365C59.4637 42.5154 57.3634 45.8336 55.6991 48.5867L46.0285 64.7492H40.8164C40.9815 54.4025 40.8474 43.5604 40.819 33.206Z" fill="#004B94"/>
<path d="M71.3827 33.201H76.1071V45.6248C80.8573 45.5165 85.881 45.5939 90.6467 45.6248V33.3481H95.3866V64.7314L93.1082 64.7495H90.6261L90.6467 50.4473C86.0229 50.3131 80.7722 50.4473 76.0942 50.4266V64.7004H71.375L71.3827 33.201Z" fill="#004B94"/>
<path d="M101.299 33.1984H105.988C106.013 37.3268 106.001 41.4629 105.951 45.6067L120.548 45.5887V33.3403C122.039 33.2862 123.814 33.3403 125.326 33.3403V64.721L123.04 64.7339H120.535C120.623 60.0379 120.553 55.12 120.535 50.4111H105.954C106.049 55.0994 105.995 59.9579 105.98 64.6668H101.273L101.299 33.1984Z" fill="#004B94"/>
<path d="M212.887 33.2034L217.531 33.1905V47.0618C218.677 45.9316 219.977 44.3371 221.131 43.1295C224.227 39.8836 227.308 36.4029 230.468 33.224C232.579 33.1931 234.691 33.1836 236.805 33.1957C231.836 38.0362 226.879 43.0753 221.972 47.9778C224.622 51.0482 228.765 55.1043 231.629 58.0768C232.969 59.452 236.924 63.3636 237.879 64.6796H231.209C226.535 59.6533 221.977 54.5238 217.534 49.2911C217.443 54.338 217.534 59.612 217.534 64.677H212.889L212.887 33.2034Z" fill="#004B94"/>
<path d="M157.852 33.1984H181.75L181.773 38.155C178.705 38.2247 175.364 38.155 172.267 38.155C172.378 43.798 172.291 49.7041 172.293 55.3677V64.7107L167.324 64.7494L167.367 38.1731H157.852V33.1984Z" fill="#004B94"/>
</svg>
