<svg width="174" height="116" viewBox="0 0 174 116" fill="none" xmlns="http://www.w3.org/2000/svg">
<g clip-path="url(#clip0_2455_2834)">
<path d="M45.7262 73.8473H45.9459C46.0999 73.8458 46.2472 73.7841 46.3561 73.6753C46.465 73.5664 46.5268 73.4192 46.5282 73.2653V43.4374C46.5295 43.2798 46.4751 43.1267 46.3746 43.0052C46.2742 42.8837 46.134 42.8015 45.9789 42.7731C45.8234 42.7401 45.6613 42.7634 45.5214 42.8388C45.3816 42.9142 45.2731 43.0369 45.2153 43.1849L35.4321 67.303L35.3827 67.1878L25.6489 43.1849C25.5911 43.0369 25.4826 42.9142 25.3428 42.8388C25.2029 42.7634 25.0408 42.7401 24.8853 42.7731C24.7297 42.8005 24.5889 42.8824 24.4883 43.0041C24.3876 43.1259 24.3336 43.2795 24.336 43.4374V73.2653C24.3374 73.4192 24.3992 73.5664 24.5081 73.6753C24.617 73.7841 24.7643 73.8458 24.9183 73.8473H25.138C25.2924 73.8473 25.4405 73.786 25.5497 73.6768C25.6589 73.5677 25.7203 73.4197 25.7203 73.2653V47.0499L25.8191 47.2915L34.685 69.1422C34.7432 69.2925 34.846 69.4214 34.9795 69.5116C35.113 69.6019 35.2709 69.6492 35.4321 69.6473C35.5933 69.6492 35.7512 69.6019 35.8847 69.5116C36.0182 69.4214 36.121 69.2925 36.1792 69.1422L45.1439 47.0499V73.2653C45.1439 73.4197 45.2053 73.5677 45.3145 73.6768C45.4237 73.786 45.5718 73.8473 45.7262 73.8473Z" fill="black"/>
<path d="M56.6988 73.8692H64.4441C65.6616 73.8678 66.8288 73.3838 67.6897 72.5233C68.5506 71.6629 69.0349 70.4963 69.0363 69.2795V47.6099C69.0349 46.3261 68.524 45.0953 67.6157 44.1875C66.7074 43.2797 65.4759 42.7691 64.1914 42.7676H56.0012C54.9037 42.7691 53.8516 43.2058 53.076 43.982C52.3005 44.7582 51.8649 45.8102 51.8649 46.9072V47.9777C51.8641 48.0546 51.8787 48.1309 51.9076 48.2021C51.9365 48.2734 51.9793 48.3382 52.0335 48.3928C52.0876 48.4474 52.152 48.4908 52.223 48.5204C52.2941 48.55 52.3702 48.5652 52.4471 48.5652H52.6669C52.8218 48.5637 52.9699 48.5012 53.0789 48.3912C53.188 48.2812 53.2491 48.1326 53.2491 47.9777V46.9127C53.2491 46.1846 53.5385 45.4864 54.0536 44.9716C54.5687 44.4568 55.2673 44.1676 55.9957 44.1676H64.1859C65.1033 44.169 65.9827 44.5339 66.6314 45.1822C67.2801 45.8306 67.6451 46.7095 67.6466 47.6264V53.0067L67.5587 52.9299C66.722 52.1546 65.6235 51.7233 64.4826 51.722H56.1495C55.0117 51.722 53.9205 52.1738 53.1159 52.9779C52.3114 53.782 51.8594 54.8726 51.8594 56.0098V69.0544C51.8652 70.3334 52.3776 71.558 53.2846 72.4604C54.1915 73.3627 55.4191 73.8693 56.6988 73.8692ZM53.2491 55.9934C53.2491 55.612 53.3243 55.2343 53.4703 54.8819C53.6164 54.5296 53.8304 54.2094 54.1002 53.9397C54.3701 53.67 54.6904 53.4561 55.043 53.3101C55.3955 53.1642 55.7734 53.0891 56.155 53.0891H64.488C65.3268 53.0905 66.1307 53.4242 66.7238 54.0169C67.3168 54.6096 67.6506 55.4131 67.6521 56.2514V69.274C67.6506 70.1239 67.3122 70.9386 66.7109 71.5396C66.1096 72.1405 65.2945 72.4788 64.4441 72.4802H56.6988C55.7839 72.4802 54.9065 72.117 54.2595 71.4704C53.6126 70.8238 53.2491 69.9469 53.2491 69.0324V55.9934Z" fill="black"/>
<path d="M91.2586 72.9359L85.4085 60.5996H85.4799C86.8814 60.4172 88.1689 59.732 89.1027 58.6715C90.0364 57.611 90.5527 56.2476 90.5555 54.8349V48.697C90.5541 47.1248 89.9286 45.6175 88.8163 44.5059C87.7041 43.3942 86.1959 42.7691 84.623 42.7676H74.8892C74.6969 42.7676 74.5124 42.844 74.3764 42.9799C74.2405 43.1158 74.1641 43.3001 74.1641 43.4923V73.2544C74.1655 73.4092 74.2281 73.5572 74.3381 73.6662C74.4482 73.7752 74.5969 73.8363 74.7518 73.8363H74.9661C75.1205 73.8363 75.2686 73.775 75.3778 73.6659C75.487 73.5567 75.5483 73.4087 75.5483 73.2544V60.627H83.9034V60.66L90.0007 73.5124C90.0808 73.6772 90.223 73.8036 90.3962 73.8638C90.4843 73.8993 90.579 73.9153 90.6739 73.9106C90.7688 73.9058 90.8615 73.8805 90.9455 73.8363C91.1043 73.756 91.2256 73.6173 91.284 73.4493C91.3424 73.2814 91.3333 73.0973 91.2586 72.9359ZM75.5428 59.26V44.1511H84.6175C85.8237 44.1511 86.9806 44.6301 87.8336 45.4826C88.6866 46.3351 89.1658 47.4913 89.1658 48.697V54.8349C89.1643 56.009 88.6966 57.1346 87.8654 57.9643C87.0343 58.794 85.9076 59.26 84.7328 59.26H75.5428Z" fill="black"/>
<path d="M101.019 73.8473H101.2C101.36 73.8473 101.514 73.7837 101.627 73.6704C101.741 73.5571 101.804 73.4035 101.804 73.2434V44.1456H109.599C109.678 44.1464 109.757 44.1314 109.83 44.1017C109.903 44.0719 109.97 44.028 110.026 43.9723C110.082 43.9167 110.127 43.8505 110.157 43.7775C110.188 43.7045 110.203 43.6263 110.203 43.5472V43.3605C110.203 43.2815 110.188 43.2032 110.157 43.1303C110.127 43.0573 110.082 42.9911 110.026 42.9354C109.97 42.8798 109.903 42.8358 109.83 42.8061C109.757 42.7763 109.678 42.7614 109.599 42.7621H92.6199C92.5408 42.7614 92.4623 42.7763 92.3891 42.8061C92.3158 42.8358 92.2491 42.8798 92.1929 42.9354C92.1368 42.9911 92.0922 43.0573 92.0617 43.1303C92.0313 43.2032 92.0156 43.2815 92.0156 43.3605V43.5472C92.0156 43.6263 92.0313 43.7045 92.0617 43.7775C92.0922 43.8505 92.1368 43.9167 92.1929 43.9723C92.2491 44.028 92.3158 44.0719 92.3891 44.1017C92.4623 44.1314 92.5408 44.1464 92.6199 44.1456H100.442V73.2434C100.441 73.3993 100.5 73.5497 100.608 73.6625C100.715 73.7753 100.863 73.8416 101.019 73.8473Z" fill="black"/>
<path d="M114.989 42.7731H114.637C114.501 42.7731 114.369 42.8275 114.272 42.9242C114.176 43.021 114.121 43.1523 114.121 43.2892V73.1171C114.121 73.3084 114.197 73.4919 114.332 73.6276C114.466 73.7634 114.649 73.8404 114.841 73.8418H129.436C129.57 73.834 129.697 73.7771 129.792 73.6819C129.887 73.5868 129.944 73.46 129.952 73.3257V72.9743C129.952 72.8375 129.898 72.7062 129.801 72.6094C129.704 72.5127 129.573 72.4583 129.436 72.4583H115.505V43.2892C115.505 43.1523 115.451 43.021 115.354 42.9242C115.257 42.8275 115.126 42.7731 114.989 42.7731Z" fill="black"/>
<path d="M148.484 48.2083C148.483 46.7677 147.91 45.3863 146.892 44.3666C145.874 43.3469 144.493 42.772 143.052 42.7676H138.344C136.923 42.7691 135.561 43.3343 134.557 44.339C133.552 45.3437 132.988 46.7058 132.988 48.126V68.5328C132.988 69.9545 133.553 71.318 134.558 72.3237C135.564 73.3295 136.927 73.8952 138.35 73.8967H143.03C144.471 73.8938 145.852 73.32 146.87 72.3012C147.888 71.2824 148.461 69.9016 148.462 68.4615V65.6176C148.462 65.4642 148.402 65.317 148.294 65.208C148.186 65.099 148.039 65.0371 147.886 65.0356H147.682C147.528 65.037 147.381 65.0988 147.272 65.2076C147.163 65.3165 147.102 65.4637 147.1 65.6176V68.456C147.099 69.5306 146.671 70.5609 145.911 71.3213C145.152 72.0817 144.121 72.5103 143.046 72.5132H138.344C137.29 72.5117 136.28 72.0923 135.535 71.347C134.791 70.6018 134.373 69.5916 134.373 68.5383V61.1102H147.743C147.934 61.1102 148.117 61.0344 148.252 60.8995C148.387 60.7646 148.462 60.5817 148.462 60.391L148.484 48.2083ZM147.1 59.7376H134.395V48.126C134.395 47.0727 134.813 46.0625 135.557 45.3173C136.302 44.572 137.312 44.1526 138.366 44.1511H143.052C144.126 44.154 145.156 44.5828 145.915 45.3433C146.674 46.1039 147.1 47.1342 147.1 48.2083V59.7376Z" fill="black"/>
<path d="M169.54 48.2083C169.537 46.7663 168.962 45.3841 167.942 44.3644C166.922 43.3447 165.539 42.7705 164.096 42.7676H159.41C157.99 42.7705 156.629 43.3362 155.625 44.3406C154.621 45.345 154.056 46.7063 154.055 48.126V68.5383C154.056 69.9581 154.621 71.3193 155.625 72.3237C156.629 73.3281 157.99 73.8938 159.41 73.8967H164.096C165.539 73.8938 166.922 73.3196 167.942 72.2999C168.962 71.2802 169.537 69.8981 169.54 68.456V60.5721C169.54 60.3799 169.463 60.1956 169.327 60.0597C169.191 59.9238 169.007 59.8474 168.815 59.8474H162.3C162.146 59.8489 162 59.9108 161.892 60.0198C161.784 60.1288 161.723 60.276 161.723 60.4294V60.6545C161.723 60.8079 161.784 60.9551 161.892 61.0641C162 61.173 162.146 61.235 162.3 61.2364H168.156V68.456C168.154 69.5316 167.726 70.5627 166.965 71.3233C166.204 72.0838 165.172 72.5117 164.096 72.5132H159.416C158.361 72.5117 157.349 72.0917 156.603 71.3454C155.858 70.5991 155.439 69.5875 155.439 68.5328V48.126C155.44 47.0732 155.859 46.0638 156.603 45.3189C157.348 44.5739 158.357 44.154 159.41 44.1511H164.096C165.172 44.1526 166.204 44.5805 166.965 45.3411C167.726 46.1016 168.154 47.1327 168.156 48.2083V50.9863C168.155 51.1352 168.212 51.2784 168.314 51.3866C168.416 51.4949 168.556 51.5599 168.705 51.5683H168.93C169.084 51.5669 169.231 51.5051 169.34 51.3963C169.449 51.2874 169.511 51.1402 169.512 50.9863L169.54 48.2083Z" fill="black"/>
<path d="M171.649 39.0782C171.554 39.0789 171.459 39.0956 171.369 39.1276V40.1049H171.6C171.946 40.1049 172.264 39.9731 172.264 39.5559C172.264 39.1386 171.929 39.0618 171.649 39.0618M172.325 41.5159L171.462 40.297H171.369V41.5159H171.072V38.941C171.266 38.8558 171.476 38.8127 171.688 38.8147C171.795 38.8 171.905 38.8082 172.01 38.8387C172.114 38.8693 172.211 38.9214 172.294 38.9919C172.377 39.0623 172.444 39.1495 172.491 39.2476C172.538 39.3457 172.564 39.4526 172.567 39.5614C172.567 40.0061 172.231 40.2531 171.781 40.2806L172.676 41.5159H172.325ZM171.776 38.2712C171.257 38.2726 170.761 38.479 170.394 38.8452C170.028 39.2115 169.821 39.7078 169.82 40.2257C169.82 40.744 170.026 41.2412 170.393 41.6077C170.759 41.9742 171.257 42.1802 171.776 42.1802C172.033 42.1809 172.288 42.1309 172.526 42.033C172.763 41.9351 172.98 41.7912 173.162 41.6096C173.344 41.4281 173.489 41.2124 173.587 40.9749C173.686 40.7374 173.737 40.4828 173.737 40.2257C173.735 39.7068 173.528 39.2097 173.16 38.8433C172.793 38.4769 172.295 38.2712 171.776 38.2712ZM171.776 42.4547C171.483 42.4547 171.193 42.397 170.923 42.2849C170.653 42.1728 170.407 42.0085 170.2 41.8015C169.994 41.5944 169.83 41.3487 169.719 41.0783C169.607 40.8079 169.55 40.5181 169.551 40.2257C169.55 39.9332 169.607 39.6435 169.719 39.3731C169.83 39.1027 169.994 38.8569 170.2 38.6499C170.407 38.4428 170.653 38.2785 170.923 38.1664C171.193 38.0544 171.483 37.9967 171.776 37.9967C172.367 37.9967 172.934 38.2315 173.352 38.6495C173.771 39.0676 174.006 39.6345 174.006 40.2257C174.006 40.8168 173.771 41.3838 173.352 41.8018C172.934 42.2198 172.367 42.4547 171.776 42.4547Z" fill="black"/>
<path d="M19.6931 64.0913V67.9783C19.6931 70.1744 18.3913 72.0465 16.1006 73.0842L16.0457 73.1116C16.1116 72.8206 16.172 72.5242 16.227 72.2332C16.2819 71.9422 16.3423 71.6512 16.3863 71.3548L16.4467 71.3108C17.0098 70.9535 17.4753 70.4618 17.8013 69.8802C18.1273 69.2985 18.3036 68.645 18.3143 67.9783V64.0913C18.3173 63.2444 18.0483 62.4188 17.547 61.736C17.0457 61.0531 16.3386 60.549 15.5293 60.2976L15.2767 60.2153L8.72337 58.14L5.3396 57.042C4.12943 56.6669 3.0717 55.9134 2.32213 54.8925C1.57255 53.8715 1.17074 52.637 1.17583 51.3707V48.4883C1.17756 48.216 1.20144 47.9442 1.24724 47.6758C1.24724 47.6483 1.24724 47.6319 1.24724 47.6044C1.41643 46.8821 1.73307 46.2026 2.17734 45.6083C2.62161 45.0141 3.18391 44.518 3.829 44.1511C5.29684 43.2578 6.98285 42.7867 8.70139 42.7896H11.8819C15.4305 42.7896 19.2647 45.035 19.2647 48.675V50.9534C19.2647 51.1092 19.2027 51.2586 19.0925 51.3688C18.9823 51.4789 18.8328 51.5408 18.6769 51.5408H18.4627C18.3068 51.5408 18.1573 51.4789 18.047 51.3688C17.9368 51.2586 17.8749 51.1092 17.8749 50.9534V48.675C17.8749 45.9793 14.7768 44.1676 11.8819 44.1676H8.70139C7.19137 44.1622 5.71167 44.591 4.43874 45.4029C3.88895 45.7166 3.42711 46.1638 3.09589 46.7031C2.76467 47.2423 2.57473 47.8563 2.54361 48.4883V51.3707C2.54136 52.3431 2.85045 53.2908 3.42566 54.0751C4.00088 54.8594 4.81207 55.4392 5.74061 55.7298L7.13037 56.169L14.3758 58.4584L15.9358 58.9525C17.0303 59.2937 17.9863 59.9772 18.6627 60.9024C19.3392 61.8276 19.7004 62.9454 19.6931 64.0913Z" fill="black"/>
<path d="M12.8473 72.4857C12.8473 72.9414 12.7924 73.3971 12.7429 73.8473H7.92547C4.49227 73.8473 0.949219 71.6512 0.949219 67.9948V65.6285C0.949192 65.4732 1.01018 65.324 1.11907 65.2131C1.22796 65.1022 1.37606 65.0385 1.53149 65.0356H1.74571C1.9021 65.0371 2.0516 65.1002 2.16167 65.2112C2.27174 65.3223 2.33349 65.4722 2.33348 65.6285V67.9948C2.33348 70.7948 5.17342 72.4638 7.92547 72.4638H12.8693V72.4967L12.8473 72.4857Z" fill="black"/>
<path d="M3.8613 44.1731C3.21622 44.54 2.65393 45.0361 2.20966 45.6303C1.76539 46.2246 1.44874 46.9041 1.27955 47.6264C1.27955 47.6538 1.27955 47.6703 1.27955 47.6978L1.24109 47.6209C-0.247545 43.7778 -0.626568 39.2649 1.44983 34.9167C5.01486 27.4501 14.4026 20.4282 14.9904 20C14.4411 20.4776 5.91024 27.6862 3.18016 35.0979C2.04308 38.1779 2.52647 41.1919 3.82834 44.0797V44.1292L3.8613 44.1731Z" fill="url(#paint0_linear_2455_2834)"/>
<path d="M14.3797 58.42L14.4126 58.4804L7.16721 56.191L7.11228 56.1251C6.78269 55.7573 6.44761 55.3949 6.07957 55.0271C4.73898 53.6913 3.58255 52.1829 2.64087 50.5416L2.58594 50.4318V48.5103C2.61706 47.8783 2.80701 47.2643 3.13823 46.725C3.46946 46.1858 3.93128 45.7386 4.48107 45.4248L4.50853 45.4742C6.58493 49.2734 9.91377 52.842 12.6439 56.0153C13.287 56.7527 13.8624 57.5465 14.3632 58.3871L14.3797 58.42Z" fill="url(#paint1_linear_2455_2834)"/>
<path d="M16.4226 71.245C16.4226 71.245 16.4226 71.2724 16.4226 71.2834V71.3548C16.3787 71.6512 16.3237 71.9422 16.2633 72.2332C16.2029 72.5242 16.148 72.8206 16.082 73.1116C16.082 73.1116 16.082 73.1391 16.082 73.1555C15.706 74.7609 15.2252 76.3399 14.6428 77.8825C12.1655 84.4707 7.89181 90.3451 3.57422 96C5.65062 93.1671 11.759 84.037 12.7642 73.979V73.8967C12.7642 73.8967 12.7642 73.8637 12.7642 73.8473C12.8136 73.3971 12.8466 72.9414 12.8686 72.4857V72.4528C12.871 72.4364 12.871 72.4198 12.8686 72.4034C13.1921 67.3575 11.7684 62.354 8.83662 58.2333L8.7762 58.162L15.2965 60.2153L15.3295 60.2811L15.3624 60.336C16.8346 63.7839 17.0159 67.5336 16.4226 71.245Z" fill="url(#paint2_linear_2455_2834)"/>
</g>
<defs>
<linearGradient id="paint0_linear_2455_2834" x1="-0.000353541" y1="33.8461" x2="14.9794" y2="33.8461" gradientUnits="userSpaceOnUse">
<stop stop-color="#F3CC71"/>
<stop offset="0.4" stop-color="#F3CC71"/>
<stop offset="1" stop-color="#B08039"/>
</linearGradient>
<linearGradient id="paint1_linear_2455_2834" x1="2.58044" y1="51.9526" x2="14.4126" y2="51.9526" gradientUnits="userSpaceOnUse">
<stop stop-color="#F3CC71"/>
<stop offset="0.4" stop-color="#F3CC71"/>
<stop offset="1" stop-color="#B08039"/>
</linearGradient>
<linearGradient id="paint2_linear_2455_2834" x1="3.54675" y1="77.07" x2="16.7412" y2="77.07" gradientUnits="userSpaceOnUse">
<stop stop-color="#F3CC71"/>
<stop offset="0.4" stop-color="#F3CC71"/>
<stop offset="1" stop-color="#B08039"/>
</linearGradient>
<clipPath id="clip0_2455_2834">
<rect width="174" height="76" fill="white" transform="translate(0 20)"/>
</clipPath>
</defs>
</svg>
