<svg width="127" height="132" viewBox="0 0 127 132" fill="none" xmlns="http://www.w3.org/2000/svg">
<g clip-path="url(#clip0_3249_3402)">
<path d="M39.2542 27.3072C45.0843 27.1362 51.0541 26.5713 56.8428 28.4318C59.4293 29.2661 61.5555 31.3236 62.0159 34.0754C63.0505 40.5897 55.2546 45.0051 58.6223 51.0633C60.7381 54.8672 65.2698 51.8666 67.1528 49.0526C74.6124 37.9052 82.6049 24.3739 97.2293 25.2601C86.6296 38.4235 74.659 50.3378 63.604 63.0917C51.8611 51.8407 41.1217 39.6206 30.4961 27.3331C33.393 27.3331 36.321 27.3901 39.2542 27.3072Z" fill="#004A93"/>
<path d="M71.8501 20.1296C73.3973 19.9469 74.9612 19.9573 76.5059 20.1607C78.5751 20.4768 79.1441 22.5705 78.4406 24.1615C76.0403 29.5719 69.0048 31.9351 63.63 29.7999C63.2954 29.6855 62.9885 29.5023 62.7288 29.262C62.4692 29.0217 62.2626 28.7297 62.1223 28.4046C61.982 28.0796 61.9111 27.7288 61.9142 27.3747C61.9172 27.0205 61.9942 26.671 62.1401 26.3485C63.8059 22.6586 67.8202 20.5027 71.8501 20.1296Z" fill="#F5B5D2"/>
<path d="M3.29918 82.3651L0.195312 82.4169V66.5225C0.195312 65.4186 0.774702 64.5273 1.48859 64.5273H3.29918V82.2666" fill="#004A93"/>
<path d="M6.14453 82.334V64.6464C6.14453 64.6464 16.0355 64.1282 18.3014 65.942C20.95 68.0668 20.8879 70.3471 20.8879 71.1244V82.334H17.784V71.6427C17.7455 70.5554 17.2971 69.5232 16.5292 68.7539C15.7612 67.9846 14.7309 67.5354 13.6455 67.4968C10.283 67.2376 9.2484 67.4968 9.2484 67.4968V82.334H6.14453Z" fill="#004A93"/>
<path d="M23.5391 82.3962V64.7138C23.5391 64.7138 33.4352 64.1956 35.6959 66.0094C38.3497 68.1342 38.2824 70.4145 38.2824 71.1918V82.3962H35.1786V71.7101C35.14 70.6228 34.6916 69.5906 33.9237 68.8213C33.1558 68.052 32.1254 67.6028 31.0401 67.5641C27.6776 67.305 26.6429 67.5641 26.6429 67.5641V82.3962H23.5391Z" fill="#004A93"/>
<path d="M39.9375 73.3943C39.9375 71.5822 40.4739 69.8107 41.4789 68.3039C42.4839 66.7972 43.9123 65.6228 45.5835 64.9293C47.2547 64.2358 49.0937 64.0544 50.8679 64.4079C52.642 64.7614 54.2717 65.6341 55.5508 66.9155C56.8299 68.1969 57.701 69.8295 58.0539 71.6068C58.4068 73.3842 58.2257 75.2265 57.5334 76.9007C56.8412 78.5749 55.6689 80.0059 54.1649 81.0127C52.6608 82.0195 50.8925 82.5568 49.0836 82.5568C46.6579 82.5568 44.3315 81.5915 42.6163 79.8732C40.9011 78.1549 39.9375 75.8244 39.9375 73.3943ZM49.0836 79.437C50.2778 79.437 51.4452 79.0822 52.4381 78.4174C53.431 77.7526 54.2048 76.8078 54.6616 75.7024C55.1183 74.597 55.2376 73.3807 55.0042 72.2074C54.7709 71.0341 54.1954 69.9564 53.3506 69.1108C52.5057 68.2652 51.4296 67.6896 50.2582 67.4569C49.0868 67.2241 47.8727 67.3446 46.7697 67.8031C45.6667 68.2617 44.7242 69.0377 44.0614 70.0329C43.3987 71.0282 43.0455 72.198 43.0465 73.3943C43.0479 74.9974 43.6846 76.5344 44.8166 77.6675C45.9486 78.8006 47.4833 79.437 49.0836 79.437Z" fill="#004A93"/>
<path d="M57.1016 64.8537H70.4223V67.8854H65.3113V82.3962H62.2074V67.8854H57.1016V64.8537Z" fill="#004A93"/>
<path d="M71.5195 64.8745V82.3962H74.6234V74.69H81.933V82.3962H84.9696V64.8434H81.8658V71.5805H74.6234V64.8745H71.5195Z" fill="#004A93"/>
<path d="M101.459 64.9055H92.7273C89.044 64.9055 86.5195 68.9893 86.5195 73.7156C86.5195 78.442 89.8821 82.4635 92.8566 82.4635H101.522V79.3541H93.8912C92.6652 79.3541 90.3373 77.9911 90.1407 75.3377H101.459V72.3008H90.1407C90.0786 70.3574 91.5012 68.0254 93.9585 68.0254H101.459V64.9055Z" fill="#004A93"/>
<path d="M103.203 82.4273V69.0515C103.203 67.6263 104.176 64.8434 106.892 64.8434H112.737V67.9528H107.926C107.777 67.9372 107.626 67.9518 107.482 67.9958C107.339 68.0399 107.206 68.1124 107.091 68.2091C106.976 68.3059 106.882 68.4248 106.814 68.5589C106.746 68.6929 106.705 68.8393 106.695 68.9893V82.4273H103.203Z" fill="#004A93"/>
<path d="M113.704 64.8434L125.602 64.9056C125.918 64.9365 126.213 65.0764 126.438 65.3013C126.663 65.5263 126.802 65.8224 126.833 66.139V82.334H116.228C113.698 82.334 111.64 80.0952 111.474 77.4107C111.293 74.4671 112.995 71.6427 116.228 71.0623H123.765V67.9528H113.704V64.8434ZM116.652 74.1043C114.971 74.1043 114.454 76.3742 114.454 76.9547C114.454 77.5351 115.038 79.2868 116.461 79.3645C118.53 79.4785 123.765 79.3645 123.765 79.3645V74.1303C123.765 74.1303 118.334 74.1043 116.652 74.1043Z" fill="#004A93"/>
<path d="M127 84.0805H0V96H127V84.0805Z" fill="#004A93"/>
</g>
<defs>
<clipPath id="clip0_3249_3402">
<rect width="127" height="76" fill="white" transform="translate(0 20)"/>
</clipPath>
</defs>
</svg>
